SplineFontDB: 3.0
FontName: Monda-Light-Italic
FullName: Monda Light-Italic
FamilyName: Monda
Weight: Normal
ItalicAngle: 0
UnderlinePosition: 0
UnderlineWidth: 0
Ascent: 1638
Descent: 410
UFOAscent: 1524
UFODescent: -695
LayerCount: 2
Layer: 0 0 "Back"  1
Layer: 1 0 "Fore"  0
OS2Version: 0
OS2_WeightWidthSlopeOnly: 0
OS2_UseTypoMetrics: 0
CreationTime: 1391963934
ModificationTime: 1391964169
PfmFamily: 0
TTFWeight: 400
TTFWidth: 5
LineGap: 0
VLineGap: 0
OS2TypoAscent: 0
OS2TypoAOffset: 1
OS2TypoDescent: 0
OS2TypoDOffset: 1
OS2TypoLinegap: 0
OS2WinAscent: 0
OS2WinAOffset: 1
OS2WinDescent: 0
OS2WinDOffset: 1
HheadAscent: 0
HheadAOffset: 1
HheadDescent: 0
HheadDOffset: 1
OS2Vendor: 'PfEd'
Lookup: 6 0 0 "'locl' Localized Forms in Latin lookup 0"  {"'locl' Localized Forms in Latin lookup 0 contextual 0"  "'locl' Localized Forms in Latin lookup 0 contextual 1"  } ['locl' ('latn' <'CAT ' 'dflt' > ) ]
Lookup: 4 0 0 "Ligature Substitution lookup 1"  {"Ligature Substitution lookup 1 subtable"  } []
Lookup: 4 0 0 "Ligature Substitution lookup 2"  {"Ligature Substitution lookup 2 subtable"  } []
Lookup: 1 0 0 "'locl' Localized Forms in Latin lookup 3"  {"'locl' Localized Forms in Latin lookup 3 subtable"  } ['locl' ('latn' <'ROM ' 'dflt' > ) ]
Lookup: 1 0 0 "'locl' Localized Forms in Latin lookup 4"  {"'locl' Localized Forms in Latin lookup 4 subtable"  } ['locl' ('latn' <'MOL ' 'dflt' > ) ]
Lookup: 1 0 0 "'locl' Localized Forms in Latin lookup 5"  {"'locl' Localized Forms in Latin lookup 5 subtable"  } ['locl' ('latn' <'KAZ ' 'dflt' > ) ]
Lookup: 1 0 0 "'locl' Localized Forms in Latin lookup 6"  {"'locl' Localized Forms in Latin lookup 6 subtable"  } ['locl' ('latn' <'TAT ' 'dflt' > ) ]
Lookup: 1 0 0 "'locl' Localized Forms in Latin lookup 7"  {"'locl' Localized Forms in Latin lookup 7 subtable"  } ['locl' ('latn' <'TRK ' 'dflt' > ) ]

StartChar: A
Encoding: 34 65 0
Width: 1361
VWidth: 0
Flags: HW
PickledData: "(dp1
S'org.robofab.postScriptHintData'
p2
(dp3
s."
AnchorPoint: "ogonek" 1169 0 basechar 0
AnchorPoint: "top" 791 1428 basechar 0
LayerCount: 2
Fore
SplineSet
-27 0 m 257
 124 0 l 257
 275 283 l 257
 957 283 l 257
 1019 0 l 257
 1160 0 l 257
 819 1428 l 257
 772 1428 l 257
 -27 0 l 257
335 393 m 257
 763 1199 l 257
 936 393 l 257
 335 393 l 257
EndSplineSet
Substitution2: "Single Substitution lookup 13 subtable" ordfeminine
EndChar

StartChar: AE
Encoding: 135 198 1
Width: 1597
VWidth: 0
Flags: HW
PickledData: "(dp1
S'org.robofab.postScriptHintData'
p2
(dp3
s."
AnchorPoint: "top" 1083 1428 basechar 0
LayerCount: 2
Fore
SplineSet
-5 5 m 257
 134 0 l 257
 248 283 l 257
 794 283 l 257
 749 0 l 257
 1355 0 l 257
 1371 104 l 257
 903 104 l 257
 995 675 l 257
 1399 675 l 257
 1415 788 l 257
 1011 788 l 257
 1097 1324 l 257
 1557 1324 l 257
 1574 1427 l 257
 578 1427 l 257
 -5 5 l 257
289 381 m 257
 654 1324 l 257
 960 1324 l 257
 810 381 l 257
 289 381 l 257
EndSplineSet
EndChar

StartChar: B
Encoding: 35 66 17
Width: 1377
VWidth: 0
Flags: HW
PickledData: "(dp1
S'org.robofab.postScriptHintData'
p2
(dp3
s."
AnchorPoint: "top" 778 1428 basechar 0
LayerCount: 2
Fore
SplineSet
108 0 m 257
 633 0 l 258
 976 0 1148 115 1197 389 c 256
 1200.67548173 412.365562434 1202.45554477 435.128037101 1202.45554477 457.142663966 c 0
 1202.45554477 602.836543716 1124.49132414 715.775757006 1002 754 c 257
 1131 805 1201 912 1224 1026 c 257
 1231.21035849 1072.29809136 1235.79245058 1115.49986888 1235.79245058 1155.11346036 c 0
 1235.79245058 1324.27124665 1152.23996723 1428 833 1428 c 258
 335 1428 l 257
 108 0 l 257
271 114 m 257
 364 692 l 257
 813 692 l 258
 1003.95099363 692 1066.07863568 579.750412947 1066.07863568 469.680152263 c 0
 1066.07863568 452.9353758 1064.64081876 436.241035379 1062 420 c 256
 1022 165 880 114 660 114 c 258
 271 114 l 257
1091.23014898 1124.94014714 m 0
 1091.23014898 931.413629675 1018.48687126 804 789 804 c 258
 380 804 l 257
 461 1308 l 257
 776 1308 l 258
 1002.20951233 1308 1091.23014898 1278.29931557 1091.23014898 1124.94014714 c 0
EndSplineSet
EndChar

StartChar: C
Encoding: 36 67 19
Width: 1424
VWidth: 0
Flags: HW
PickledData: "(dp1
S'org.robofab.postScriptHintData'
p2
(dp3
s."
AnchorPoint: "bot" 651 0 basechar 0
AnchorPoint: "top" 865 1428 basechar 0
LayerCount: 2
Fore
SplineSet
629 -20 m 256
 1057 -20 1161 121 1211 413 c 256
 1211 419 1210 408 1210 413 c 257
 1079 413 l 257
 1077 400 1080 415 1078 402 c 256
 1024 114 920 100 654 100 c 256
 413.969401386 100 285.82073206 150.309323908 285.82073206 351.781759953 c 0
 285.82073206 382.812451036 288.860677026 417.429036099 295 456 c 258
 374 956 l 258
 419 1245 564 1329 838 1329 c 256
 1077.80217103 1329 1180.69456842 1309.65405372 1180.69456842 1114.99570018 c 0
 1180.69456842 1083.98878117 1178.08388371 1048.53366743 1173 1008 c 256
 1172 993 1176 1024 1174 1009 c 257
 1305 1016 l 257
 1307 1023 1307 1020 1307 1026 c 256
 1313.20282388 1068.98701202 1316.55487529 1108.35333491 1316.55487529 1144.24905219 c 0
 1316.55487529 1357.19416489 1198.58781616 1448 858 1448 c 256
 399 1448 272 1229 222 918 c 258
 154 487 l 258
 145.618524697 433.393480874 140.682427646 383.049399562 140.682427646 336.462887665 c 0
 140.682427646 116.25238708 250.973243517 -20 629 -20 c 256
EndSplineSet
EndChar

StartChar: D
Encoding: 37 68 26
Width: 1497
VWidth: 0
Flags: HW
PickledData: "(dp1
S'org.robofab.postScriptHintData'
p2
(dp3
s."
AnchorPoint: "mid" 352 751 basechar 0
AnchorPoint: "top" 792 1428 basechar 0
LayerCount: 2
Fore
SplineSet
269 101 m 257
 464 1325 l 257
 840 1325 l 258
 1023.88850282 1325 1209.3706988 1293.1261368 1209.3706988 1050.83830328 c 0
 1209.3706988 1021.70463442 1206.68888034 989.528667801 1201 954 c 258
 1123 457 l 258
 1071 130 852 101 645 101 c 258
 269 101 l 257
108 0 m 257
 645 0 l 258
 983 0 1215 143 1267 466 c 258
 1345 958 l 258
 1349.93721203 989.504114867 1352.46998251 1020.09620018 1352.46998251 1049.55533526 c 0
 1352.46998251 1270.69991445 1209.74222305 1428 870 1428 c 258
 335 1428 l 257
 108 0 l 257
EndSplineSet
EndChar

StartChar: Delta
Encoding: 418 916 30
AltUni2: 002206.ffffffff.0
Width: 1433
VWidth: 0
Flags: HW
PickledData: "(dp1
S'org.robofab.postScriptHintData'
p2
(dp3
s."
LayerCount: 2
Fore
SplineSet
79 0 m 257
 1117 0 l 257
 898 1428 l 257
 745 1428 l 257
 79 0 l 257
304 110 m 257
 819 1229 l 257
 983 110 l 257
 304 110 l 257
EndSplineSet
EndChar

StartChar: E
Encoding: 38 69 33
Width: 1218
VWidth: 0
Flags: HW
PickledData: "(dp1
S'org.robofab.postScriptHintData'
p2
(dp3
s."
AnchorPoint: "bot" 455 0 basechar 0
AnchorPoint: "ogonek" 701 0 basechar 0
AnchorPoint: "top" 750 1428 basechar 0
LayerCount: 2
Fore
SplineSet
108 0 m 257
 985 0 l 257
 1002 106 l 257
 269 106 l 257
 362 684 l 257
 997 684 l 257
 1013 796 l 257
 378 796 l 257
 463 1322 l 257
 1183 1322 l 257
 1200 1428 l 257
 335 1428 l 257
 108 0 l 257
EndSplineSet
EndChar

StartChar: Eng
Encoding: 267 330 44
Width: 1547
VWidth: 0
Flags: HW
PickledData: "(dp1
S'org.robofab.postScriptHintData'
p2
(dp3
s."
LayerCount: 2
Fore
SplineSet
631 -368 m 257
 895 -368 1193 -283 1253 98 c 258
 1464 1427 l 257
 1341 1427 l 257
 1180 416 l 257
 477 1427 l 257
 367 1427 l 257
 141 0 l 257
 264 0 l 257
 449 1169 l 257
 1134 212 l 257
 1119 114 l 258
 1067 -220 875 -233 620 -256 c 257
 631 -368 l 257
EndSplineSet
EndChar

StartChar: Euro
Encoding: 467 8364 48
Width: 1442
VWidth: 0
Flags: HW
PickledData: "(dp1
S'org.robofab.postScriptHintData'
p2
(dp3
s."
LayerCount: 2
Fore
SplineSet
730 808 m 257
 751 942 l 257
 9 942 l 257
 -12 808 l 257
 730 808 l 257
679 486 m 257
 702 620 l 257
 -40 620 l 257
 -63 486 l 257
 679 486 l 257
EndSplineSet
Refer: 19 67 N 1 0 0 1 0 0 2
EndChar

StartChar: F
Encoding: 39 70 49
Width: 1137
VWidth: 0
Flags: HW
PickledData: "(dp1
S'org.robofab.postScriptHintData'
p2
(dp3
s."
AnchorPoint: "top" 745 1428 basechar 0
LayerCount: 2
Fore
SplineSet
108 0 m 257
 251 0 l 257
 360 682 l 257
 962 682 l 257
 979 794 l 257
 377 794 l 257
 462 1324 l 257
 1096 1324 l 257
 1113 1428 l 257
 335 1428 l 257
 108 0 l 257
EndSplineSet
EndChar

StartChar: G
Encoding: 40 71 51
Width: 1516
VWidth: 0
Flags: HW
PickledData: "(dp1
S'org.robofab.postScriptHintData'
p2
(dp3
s."
AnchorPoint: "bot" 670 0 basechar 0
AnchorPoint: "top" 862 1428 basechar 0
LayerCount: 2
Fore
SplineSet
1231.96982923 1128.45089627 m 0
 1231.96982923 1093.82206031 1226.330205 1036.23357625 1224 1024 c 257
 1345 1035 l 257
 1351.86502313 1069.32511565 1355.04023982 1117.79753432 1355.04023982 1154.02611772 c 0
 1355.04023982 1338.65837969 1258.27086568 1448 884 1448 c 256
 426 1448 279 1229 228 918 c 257
 160 487 l 258
 152.339897587 438.007261653 148.016040459 391.73954808 148.016040459 348.574834185 c 0
 148.016040459 121.25931748 267.930558386 -20 652 -20 c 257
 918 -20 1095 69 1159 292 c 257
 1124 0 l 257
 1206 0 l 257
 1321 722 l 257
 789 722 l 257
 771 604 l 257
 1141 604 l 257
 1117 456 l 258
 1071 167 949 100 671 100 c 256
 429.715948395 100 292.370763678 151.205177069 292.370763678 357.175116483 c 0
 292.370763678 386.810070555 295.214008601 419.648880122 301 456 c 258
 379 956 l 258
 425 1245 591 1329 865 1329 c 256
 1127.56004464 1329 1231.96982923 1317.984559 1231.96982923 1128.45089627 c 0
EndSplineSet
EndChar

StartChar: H
Encoding: 41 72 58
Width: 1444
VWidth: 0
Flags: HW
PickledData: "(dp1
S'org.robofab.postScriptHintData'
p2
(dp3
s."
AnchorPoint: "top" 812 1428 basechar 0
LayerCount: 2
Fore
SplineSet
98 0 m 257
 241 0 l 257
 350 685 l 257
 1085 685 l 257
 975 0 l 257
 1118 0 l 257
 1346 1428 l 257
 1203 1428 l 257
 1100 782 l 257
 365 782 l 257
 469 1428 l 257
 326 1428 l 257
 98 0 l 257
EndSplineSet
EndChar

StartChar: Hbar
Encoding: 231 294 59
Width: 1483
VWidth: 0
Flags: HW
PickledData: "(dp1
S'org.robofab.postScriptHintData'
p2
(dp3
s."
LayerCount: 2
Fore
SplineSet
228 1017 m 257
 1351 1017 l 257
 1373 1153 l 257
 249 1153 l 257
 228 1017 l 257
EndSplineSet
Refer: 58 72 N 1 0 0 1 0 0 2
EndChar

StartChar: I
Encoding: 42 73 61
Width: 1122
VWidth: 0
Flags: HW
PickledData: "(dp1
S'org.robofab.postScriptHintData'
p2
(dp3
s."
AnchorPoint: "ogonek" 562 0 basechar 0
AnchorPoint: "top" 665 1428 basechar 0
LayerCount: 2
Fore
SplineSet
95 0 m 257
 799 0 l 257
 817 107 l 257
 537 107 l 257
 730 1322 l 257
 1010 1322 l 257
 1027 1428 l 257
 323 1428 l 257
 306 1322 l 257
 586 1322 l 257
 393 107 l 257
 113 107 l 257
 95 0 l 257
EndSplineSet
EndChar

StartChar: J
Encoding: 43 74 75
Width: 1196
VWidth: 0
Flags: HW
PickledData: "(dp1
S'org.robofab.postScriptHintData'
p2
(dp3
s."
AnchorPoint: "top" 764 1428 basechar 0
LayerCount: 2
Fore
SplineSet
419 -12 m 256
 740 -12 874 168 916 436 c 258
 1073 1428 l 257
 350 1428 l 257
 330 1300 l 257
 910 1300 l 257
 772 431 l 258
 736 209 634 111 440 111 c 256
 269 111 101 180 84 188 c 257
 20 72 l 257
 44 54 236 -12 419 -12 c 256
EndSplineSet
EndChar

StartChar: K
Encoding: 44 75 77
Width: 1387
VWidth: 0
Flags: HW
PickledData: "(dp1
S'org.robofab.postScriptHintData'
p2
(dp3
s."
AnchorPoint: "bot" 551 0 basechar 0
AnchorPoint: "top" 833 1428 basechar 0
LayerCount: 2
Fore
SplineSet
108 0 m 257
 251 0 l 257
 320 424 l 257
 628 697 l 257
 1022 0 l 257
 1177 0 l 257
 722 794 l 257
 1381 1428 l 257
 1229 1428 l 257
 797 1007 770 1027 347 595 c 257
 479 1428 l 257
 335 1428 l 257
 108 0 l 257
EndSplineSet
EndChar

StartChar: L
Encoding: 45 76 80
Width: 1116
VWidth: 0
Flags: HW
PickledData: "(dp1
S'org.robofab.postScriptHintData'
p2
(dp3
s."
AnchorPoint: "mid" 229 673 basechar 0
AnchorPoint: "bot" 489 0 basechar 0
AnchorPoint: "top" 799 1428 basechar 0
LayerCount: 2
Fore
SplineSet
108 0 m 257
 919 0 l 257
 937 109 l 257
 269 109 l 257
 479 1428 l 257
 335 1428 l 257
 108 0 l 257
EndSplineSet
EndChar

StartChar: Lslash
Encoding: 258 321 86
Width: 1129
VWidth: 0
Flags: HW
PickledData: "(dp1
S'org.robofab.postScriptHintData'
p2
(dp3
s."
LayerCount: 2
Fore
SplineSet
58 650 m 257
 904 1081 l 257
 915 1145 l 257
 69 714 l 257
 58 650 l 257
EndSplineSet
Refer: 80 76 N 1 0 0 1 0 0 2
EndChar

StartChar: M
Encoding: 46 77 87
Width: 1694
VWidth: 0
Flags: HW
PickledData: "(dp1
S'org.robofab.postScriptHintData'
p2
(dp3
s."
AnchorPoint: "top" 941 1428 basechar 0
LayerCount: 2
Fore
SplineSet
108 0 m 257
 248 0 l 257
 428 1135 l 257
 752 475 l 257
 871 475 l 257
 1402 1139 l 257
 1221 0 l 257
 1359 0 l 257
 1586 1428 l 257
 1501 1428 l 257
 825 564 l 257
 435 1428 l 257
 335 1428 l 257
 108 0 l 257
EndSplineSet
EndChar

StartChar: N
Encoding: 47 78 89
Width: 1544
VWidth: 0
Flags: HW
PickledData: "(dp1
S'org.robofab.postScriptHintData'
p2
(dp3
s."
AnchorPoint: "bot" 620 0 basechar 0
AnchorPoint: "top" 871 1428 basechar 0
LayerCount: 2
Fore
SplineSet
108 0 m 257
 231 0 l 257
 416 1169 l 257
 1056 0 l 257
 1208 0 l 257
 1436 1428 l 257
 1311 1428 l 257
 1113 186 l 257
 446 1428 l 257
 335 1428 l 257
 108 0 l 257
EndSplineSet
EndChar

StartChar: O
Encoding: 48 79 96
Width: 1500
VWidth: 0
Flags: HW
PickledData: "(dp1
S'org.robofab.postScriptHintData'
p2
(dp3
s."
AnchorPoint: "ogonek" 665 0 basechar 0
AnchorPoint: "top" 872 1428 basechar 0
LayerCount: 2
Fore
SplineSet
661 100 m 256
 421.712048703 100 290.663650592 144.348150264 290.663650592 343.830268989 c 0
 290.663650592 374.435225144 293.748310547 408.691775267 300 447 c 258
 380 963 l 257
 426 1253 580 1329 855 1329 c 256
 1091.15565578 1329 1210.17311842 1274.82358567 1210.17311842 1076.26582172 c 0
 1210.17311842 1042.7650196 1206.7850876 1005.15416127 1200 963 c 258
 1119 447 l 258
 1073 159 940 100 661 100 c 256
642 -20 m 256
 1081 -20 1221 189 1269 490 c 257
 1335 916 l 258
 1343.79771944 970.545860534 1348.88024525 1022.36724574 1348.88024525 1070.73418544 c 0
 1348.88024525 1297.25064041 1237.40411453 1448 874 1448 c 256
 418 1448 280 1238 231 928 c 257
 158 477 l 258
 150.359764771 427.257191914 145.996250275 380.553278056 145.996250275 337.214726118 c 0
 145.996250275 113.949975926 261.801421148 -20 642 -20 c 256
EndSplineSet
Substitution2: "Single Substitution lookup 14 subtable" ordmasculine
EndChar

StartChar: OE
Encoding: 275 338 97
Width: 1511
VWidth: 0
Flags: HW
PickledData: "(dp1
S'org.robofab.postScriptHintData'
p2
(dp3
s."
LayerCount: 2
Fore
SplineSet
696 0 m 258
 1220 0 l 257
 1241 126 l 257
 775 126 l 257
 861 663 l 257
 1266 663 l 257
 1284 788 l 257
 879 788 l 257
 961 1301 l 257
 1414 1301 l 257
 1435 1428 l 257
 924 1428 l 258
 922.851542613 1428.00227417 921.704952269 1428.00341054 920.560225826 1428.00341054 c 0
 418.345524319 1428.00341054 274.886291348 1209.28136132 225 894 c 258
 165 512 l 258
 157.275642478 463.079069028 152.788356306 416.644208853 152.788356306 373.162166342 c 0
 152.788356306 146.44205487 274.783905749 5.68434188608e-14 696 0 c 258
702 125 m 258
 468.741447028 125 314.687257093 167.293591913 314.687257093 393.488556356 c 0
 314.687257093 425.238519442 317.722504517 460.611793049 324 500 c 258
 390 915 l 258
 440 1234 624 1305 889 1305 c 258
 802 1305 l 257
 615 125 l 257
 702 125 l 258
EndSplineSet
EndChar

StartChar: Ohm
Encoding: 470 8486 105
Width: 1557
VWidth: 0
Flags: HW
PickledData: "(dp1
S'org.robofab.postScriptHintData'
p2
(dp3
s."
LayerCount: 2
Fore
SplineSet
893 1455 m 256
 551 1455 307 1344 205 698 c 256
 190.580496452 606.046116717 183.760402533 528.229370465 183.760402533 462.066517964 c 0
 183.760402533 248.335268072 254.930566219 156.216643411 371 102 c 257
 132 102 l 257
 116 0 l 257
 559 0 l 257
 577 110 l 257
 404.488019095 161.830953904 320.546827192 251.962789538 320.546827192 476.228166823 c 0
 320.546827192 541.862533731 327.736568596 618.985723425 342 710 c 256
 429 1258 597 1324 873 1324 c 256
 1091.76774619 1324 1233.06772065 1280.67056835 1233.06772065 972.726735607 c 0
 1233.06772065 900.610727314 1225.31842158 813.982500325 1209 710 c 256
 1146 308 1028 177 785 110 c 257
 768 0 l 257
 1211 0 l 257
 1227 102 l 257
 987 102 l 257
 1161 173 1281 309 1342 698 c 256
 1359.60851705 808.437883649 1367.92312897 903.239794827 1367.92312897 984.524204564 c 0
 1367.92312897 1378.70823876 1172.38766751 1455 893 1455 c 256
EndSplineSet
EndChar

StartChar: Oslash
Encoding: 153 216 111
Width: 1510
VWidth: 0
Flags: HW
PickledData: "(dp1
S'org.robofab.postScriptHintData'
p2
(dp3
s."
LayerCount: 2
Fore
SplineSet
318 -182 m 257
 1255 1616 l 257
 1148 1663 l 257
 213 -135 l 257
 318 -182 l 257
EndSplineSet
Refer: 96 79 N 1 0 0 1 0 0 2
EndChar

StartChar: P
Encoding: 49 80 114
Width: 1277
VWidth: 0
Flags: HW
PickledData: "(dp1
S'org.robofab.postScriptHintData'
p2
(dp3
s."
AnchorPoint: "top" 823 1428 basechar 0
LayerCount: 2
Fore
SplineSet
108 0 m 257
 253 0 l 257
 339 541 l 257
 784 541 l 258
 946 541 1142 634 1196 983 c 256
 1203.56834079 1029.69523467 1207.13994347 1072.12864147 1207.13994347 1110.56520206 c 0
 1207.13994347 1341.29433687 1078.43981562 1428 913 1428 c 258
 335 1428 l 257
 108 0 l 257
358 656 m 257
 461 1310 l 257
 886 1310 l 258
 1021.18617488 1310 1053.87631227 1220.4236311 1053.87631227 1121.25093269 c 0
 1053.87631227 1069.30184745 1044.90639795 1014.71960554 1037 969 c 256
 1017 837 971 656 781 656 c 258
 358 656 l 257
EndSplineSet
EndChar

StartChar: Q
Encoding: 50 81 116
Width: 1494
VWidth: 0
Flags: HW
PickledData: "(dp1
S'org.robofab.postScriptHintData'
p2
(dp3
s."
LayerCount: 2
Fore
SplineSet
761 -294 m 257
 882 -237 l 257
 762 -16 l 257
 1125 14 1245 213 1289 490 c 258
 1357 916 l 258
 1365.84202541 970.820557558 1370.96261555 1022.88912937 1370.96261555 1071.46466107 c 0
 1370.96261555 1297.57467615 1260.01333586 1448 897 1448 c 256
 440 1448 302 1238 252 928 c 257
 181 477 l 258
 173.001143416 426.454033926 168.420051153 378.949298816 168.420051153 334.870284413 c 0
 168.420051153 119.948070932 277.330086132 -13.5316959416 630 -21 c 257
 761 -294 l 257
682 100 m 256
 441.258969027 100 311.597695761 144.888395238 311.597695761 347.481530175 c 0
 311.597695761 377.153352386 314.379004938 410.20803232 320 447 c 258
 402 963 l 258
 449 1253 603 1329 877 1329 c 256
 1114.23476784 1329 1231.90985659 1274.72137269 1231.90985659 1075.70378207 c 0
 1231.90985659 1042.34450354 1228.60361256 1004.91858409 1222 963 c 258
 1140 447 l 258
 1095 159 960 100 682 100 c 256
EndSplineSet
EndChar

StartChar: R
Encoding: 51 82 117
Width: 1428
VWidth: 0
Flags: HW
PickledData: "(dp1
S'org.robofab.postScriptHintData'
p2
(dp3
s."
AnchorPoint: "bot" 576 0 basechar 0
AnchorPoint: "top" 829 1428 basechar 0
LayerCount: 2
Fore
SplineSet
108 0 m 257
 253 0 l 257
 350 609 l 257
 350 609 863 610 880 610 c 257
 1086 0 l 257
 1232 0 l 257
 1014 642 l 257
 1105 680 1227 743 1269 1008 c 256
 1275.97052768 1052.43711394 1279.19157896 1092.31907888 1279.19157896 1128.09139189 c 0
 1279.19157896 1379.70758392 1119.83104889 1428 985 1428 c 258
 335 1428 l 257
 108 0 l 257
369 726 m 257
 461 1310 l 257
 953 1310 l 258
 1092.63403022 1310 1126.57790266 1226.50960138 1126.57790266 1125.24035521 c 0
 1126.57790266 1080.73483253 1120.02197664 1032.79549983 1113 987 c 256
 1089 840 1021 726 832 726 c 258
 369 726 l 257
EndSplineSet
EndChar

StartChar: S
Encoding: 52 83 123
Width: 1318
VWidth: 0
Flags: HW
PickledData: "(dp1
S'org.robofab.postScriptHintData'
p2
(dp3
s."
AnchorPoint: "bot" 524 0 basechar 0
AnchorPoint: "top" 793 1428 basechar 0
LayerCount: 2
Fore
SplineSet
577 -20 m 256
 912 -20 1068 119 1111 396 c 256
 1116.5146892 430.385709136 1119.29336898 461.167252021 1119.29336898 488.903610455 c 0
 1119.29336898 632.171664484 1045.15579962 694.191575143 891 752 c 258
 482 904 l 257
 404.091085139 934.059345104 380.373444265 972.397912622 380.373444265 1025.94152826 c 0
 380.373444265 1059.67982636 389.790224653 1099.45509077 401 1147 c 256
 431 1280 570 1329 797 1329 c 256
 1012 1329 1128 1274 1193 1230 c 257
 1241 1356 l 257
 1181 1401 1055 1448 776 1448 c 256
 508 1448 295 1364 251 1086 c 256
 246.522177625 1057.73374626 244.335326448 1032.40463508 244.335326448 1009.57152637 c 0
 244.335326448 869.231686827 326.948839671 823.1842872 468 769 c 257
 854 628 l 258
 954.053108975 591.373415465 989.464907852 549.958585737 989.464907852 488.071382846 c 0
 989.464907852 480.681710737 988.960018029 473.00015024 988 465 c 256
 948 198 868 100 594 100 c 256
 420 100 231 164 135 232 c 257
 63 116 l 257
 203 25 353 -20 577 -20 c 256
EndSplineSet
EndChar

StartChar: Sigma
Encoding: 419 931 131
Width: 1132
VWidth: 0
Flags: HW
PickledData: "(dp1
S'org.robofab.postScriptHintData'
p2
(dp3
s."
LayerCount: 2
Fore
SplineSet
954 0 m 257
 974 124 l 257
 152 124 l 257
 723 740 l 257
 733 804 l 257
 332 1306 l 257
 1161 1306 l 257
 1181 1428 l 257
 238 1428 l 257
 217 1302 l 257
 619 763 l 257
 32 133 l 257
 10 0 l 257
 954 0 l 257
EndSplineSet
EndChar

StartChar: T
Encoding: 53 84 132
Width: 1210
VWidth: 0
Flags: HW
PickledData: "(dp1
S'org.robofab.postScriptHintData'
p2
(dp3
s."
AnchorPoint: "mid" 609 748 basechar 0
AnchorPoint: "bot" 504 0 basechar 0
AnchorPoint: "top" 736 1428 basechar 0
LayerCount: 2
Fore
SplineSet
418 0 m 257
 562 0 l 257
 768 1300 l 257
 1191 1300 l 257
 1212 1428 l 257
 225 1428 l 257
 204 1300 l 257
 624 1300 l 257
 418 0 l 257
EndSplineSet
EndChar

StartChar: Thorn
Encoding: 159 222 137
Width: 1295
VWidth: 0
Flags: HW
PickledData: "(dp1
S'org.robofab.postScriptHintData'
p2
(dp3
s."
LayerCount: 2
Fore
SplineSet
96 0 m 257
 241 0 l 257
 292 316 l 257
 730 316 l 258
 892 316 1095 402 1150 750 c 256
 1156.8414285 793.022059998 1160.06515172 832.322557145 1160.06515172 868.136058798 c 0
 1160.06515172 1104.53209433 1019.60777499 1189 852 1189 c 258
 430 1189 l 257
 468 1428 l 257
 323 1428 l 257
 96 0 l 257
310 434 m 257
 411 1068 l 257
 827 1068 l 258
 967.03263677 1068 999.279165454 975.145300825 999.279165454 873.899989151 c 0
 999.279165454 826.927789737 992.338279339 778.149557607 986 736 c 256
 964 605 916 434 726 434 c 258
 310 434 l 257
EndSplineSet
EndChar

StartChar: U
Encoding: 54 85 138
Width: 1497
VWidth: 0
Flags: HW
PickledData: "(dp1
S'org.robofab.postScriptHintData'
p2
(dp3
s."
AnchorPoint: "ogonek" 700 0 basechar 0
AnchorPoint: "top" 866 1428 basechar 0
LayerCount: 2
Fore
SplineSet
645 -20 m 256
 1071 -20 1214 209 1255 469 c 258
 1407 1427 l 257
 1262 1427 l 257
 1108 450 l 257
 1058 140 863 100 663 100 c 256
 484.410546197 100 302.599538089 133.826320204 302.599538089 363.382452724 c 0
 302.599538089 389.617854355 304.97428762 418.409807896 310 450 c 258
 464 1427 l 257
 319 1427 l 257
 169 476 l 258
 161.945457264 432.688388786 157.797777648 390.238070348 157.797777648 349.532188101 c 0
 157.797777648 142.120934734 265.482846557 -20 645 -20 c 256
EndSplineSet
EndChar

StartChar: V
Encoding: 55 86 152
Width: 1327
VWidth: 0
Flags: HW
PickledData: "(dp1
S'org.robofab.postScriptHintData'
p2
(dp3
s."
LayerCount: 2
Fore
SplineSet
511 0 m 257
 578 0 l 257
 1327 1428 l 257
 1182 1428 l 257
 592 298 l 257
 370 1428 l 257
 227 1428 l 257
 511 0 l 257
EndSplineSet
EndChar

StartChar: W
Encoding: 56 87 153
Width: 2068
VWidth: 0
Flags: HW
PickledData: "(dp1
S'org.robofab.postScriptHintData'
p2
(dp3
s."
AnchorPoint: "top" 1175 1428 basechar 0
LayerCount: 2
Fore
SplineSet
453 0 m 257
 537 0 l 257
 1157 1339 l 257
 1319 0 l 257
 1413 0 l 257
 2045 1428 l 257
 1921 1428 l 257
 1409 274 l 257
 1254 1428 l 257
 1059 1428 l 257
 536 281 l 257
 377 1428 l 257
 251 1428 l 257
 453 0 l 257
EndSplineSet
EndChar

StartChar: X
Encoding: 57 88 158
Width: 1326
VWidth: 0
Flags: HW
PickledData: "(dp1
S'org.robofab.postScriptHintData'
p2
(dp3
s."
LayerCount: 2
Fore
SplineSet
14 0 m 257
 167 0 l 257
 649 608 l 257
 932 0 l 257
 1085 0 l 257
 741 725 l 257
 1299 1428 l 257
 1148 1428 l 257
 689 839 l 257
 409 1428 l 257
 269 1428 l 257
 597 721 l 257
 14 0 l 257
EndSplineSet
EndChar

StartChar: Y
Encoding: 58 89 159
Width: 1305
VWidth: 0
Flags: HW
PickledData: "(dp1
S'org.robofab.postScriptHintData'
p2
(dp3
s."
AnchorPoint: "top" 784 1428 basechar 0
LayerCount: 2
Fore
SplineSet
466 0 m 257
 610 0 l 257
 700 569 l 257
 1353 1428 l 257
 1201 1428 l 257
 645 675 l 257
 333 1428 l 257
 180 1428 l 257
 556 569 l 257
 466 0 l 257
EndSplineSet
EndChar

StartChar: Z
Encoding: 59 90 166
Width: 1254
VWidth: 0
Flags: HW
PickledData: "(dp1
S'org.robofab.postScriptHintData'
p2
(dp3
s."
AnchorPoint: "top" 758 1428 basechar 0
LayerCount: 2
Fore
SplineSet
101 0 m 257
 956 0 l 257
 979 138 l 257
 272 138 l 257
 1148 1294 l 257
 1170 1428 l 257
 363 1428 l 257
 341 1295 l 257
 1000 1295 l 257
 123 134 l 257
 101 0 l 257
EndSplineSet
EndChar

StartChar: a
Encoding: 66 97 170
Width: 1171
VWidth: 0
Flags: HW
PickledData: "(dp1
S'org.robofab.postScriptHintData'
p2
(dp3
sS'com.typemytype.robofont.layerData'
p4
(dp5
s."
AnchorPoint: "ogonek" 904 16 basechar 0
AnchorPoint: "top" 661 1052 basechar 0
LayerCount: 2
Fore
SplineSet
381 -21 m 256
 599 -21 717 104 762 162 c 257
 777 54 810 -8 940 -8 c 258
 945 -8 l 257
 992 104 l 257
 925.171542969 104 897.876030691 115.800879031 897.876030691 175.661696275 c 0
 897.876030691 193.730122524 900.362863685 216.177182112 905 244 c 258
 978 712 l 258
 983.358980175 746.045285815 986.208803325 778.252179356 986.208803325 808.354412844 c 0
 986.208803325 969.235520448 904.80764869 1070 690 1070 c 256
 421 1070 268 1003 235 793 c 257
 225 736 l 257
 362 736 l 257
 369 786 l 257
 383 872 406 953 665 953 c 256
 819.909955473 953 852.388911118 893.639515235 852.388911118 826.458635885 c 0
 852.388911118 808.205153115 849.991170677 789.374334159 847 771 c 256
 837 707 831 675 795 663 c 258
 547 576 l 258
 212 459 135 402 117 238 c 256
 115.44077664 221.294035428 114.563771452 205.096633494 114.563771452 189.501734035 c 0
 114.563771452 65.0726972003 170.395424023 -21 381 -21 c 256
415 92 m 256
 277.175183915 92 245.831341825 119.606178444 245.831341825 192.936708982 c 0
 245.831341825 210.055711014 247.539544759 229.666637048 250 252 c 256
 263 363 341 402 548 476 c 258
 816 571 l 257
 773 302 l 257
 740 194 557 92 415 92 c 256
EndSplineSet
Substitution2: "Single Substitution lookup 13 subtable" ordfeminine
EndChar

StartChar: acute
Encoding: 117 180 175
Width: 653
VWidth: 0
Flags: HW
PickledData: "(dp1
S'org.robofab.postScriptHintData'
p2
(dp3
s."
AnchorPoint: "top" 251 1052 mark 0
LayerCount: 2
Fore
SplineSet
232 1196 m 257
 348 1196 l 257
 645 1586 l 257
 446 1586 l 257
 232 1196 l 257
EndSplineSet
EndChar

StartChar: ae
Encoding: 167 230 179
Width: 1745
VWidth: 0
Flags: HW
PickledData: "(dp1
S'org.robofab.postScriptHintData'
p2
(dp3
s."
AnchorPoint: "top" 983 1052 basechar 0
LayerCount: 2
Fore
SplineSet
413 -21 m 256
 671 -21 782 90 813 207 c 257
 832 103 898 -21 1105 -21 c 256
 1395 -21 1491 71 1556 297 c 257
 1435 297 l 257
 1387 106 1312 94 1120 94 c 256
 974.142728809 94 907.431080978 155.808963006 907.431080978 274.191530899 c 0
 907.431080978 292.163299293 908.968554985 311.438894678 912 332 c 258
 941 509 l 257
 1598 509 l 257
 1638 766 l 258
 1640.95743503 784.317016964 1642.41314309 801.90592388 1642.41314309 818.738935738 c 0
 1642.41314309 978.350499057 1511.53132201 1070 1289 1070 c 256
 1135 1070 1027 1026 956 922 c 257
 940 1022 826 1070 686 1070 c 256
 418 1070 266 1011 227 767 c 257
 223 738 l 257
 359 738 l 257
 361 760 l 257
 379 868 395 953 653 953 c 256
 823.882489909 953 854.673690458 896.087913697 854.673690458 836.508970354 c 0
 854.673690458 815.54873195 850.862738576 794.258423146 848 775 c 256
 834 689 827 618 584 568 c 256
 242 498 130 425 106 292 c 256
 102.624597621 273.435286914 100.891347739 254.797912212 100.891347739 236.375183031 c 0
 100.891347739 101.975712333 193.137521244 -21 413 -21 c 256
426 98 m 256
 316.795559633 98 232.4294627 131.651949169 232.4294627 239.119151072 c 0
 232.4294627 400.264983726 381.858906222 395.017123902 571 450 c 256
 755.903623679 501.104016595 819.075514397 561.704835052 819.075514397 585.275457424 c 0
 819.075514397 587.072395507 818.708360619 588.654114824 818 590 c 258
 769 291 l 257
 734 180 567 98 426 98 c 256
957 620 m 257
 981 760 l 257
 1003 901 1092 957 1266 957 c 256
 1417.85725009 957 1520.10219911 925.578875996 1520.10219911 819.878614642 c 0
 1520.10219911 809.338501328 1519.08552843 798.059794841 1517 786 c 258
 1491 620 l 257
 957 620 l 257
EndSplineSet
EndChar

StartChar: ampersand
Encoding: 7 38 185
Width: 1484
VWidth: 0
Flags: HW
PickledData: "(dp1
S'org.robofab.postScriptHintData'
p2
(dp3
s."
LayerCount: 2
Fore
SplineSet
594 -22 m 256
 847 -22 1002 35 1091 121 c 257
 1219 -17 l 257
 1301 60 l 257
 1151 232 l 257
 1179 311 1189 384 1203 471 c 258
 1248 752 l 257
 1109 752 l 257
 1055 409 l 258
 1052 393 1049 370 1044 356 c 257
 567 881 l 257
 502.659878229 960.380669718 472.531750421 1013.92779297 472.531750421 1074.89570846 c 0
 472.531750421 1086.89205482 473.698203958 1099.17570777 476 1112 c 256
 495 1241 555 1347 769 1347 c 256
 934.682318489 1347 1007.94088617 1317.48653336 1007.94088617 1216.02240886 c 0
 1007.94088617 1202.35502398 1006.61164358 1187.38212792 1004 1171 c 258
 992 1100 l 257
 1115 1100 l 257
 1132 1212 l 258
 1136.08707144 1236.73202207 1138.07651421 1259.10283909 1138.07651421 1279.33572836 c 0
 1138.07651421 1452.17083222 992.905620777 1469 770 1469 c 256
 452 1469 356 1280 332 1128 c 256
 328.356888118 1104.62336542 326.626272638 1083.27443788 326.626272638 1063.53698986 c 0
 326.626272638 953.248578765 380.661669557 893.275756144 457 811 c 257
 255 754 178 627 146 426 c 256
 141.574606155 398.499338252 138.672976024 368.500703203 138.672976024 337.480662303 c 0
 138.672976024 172.233167316 221.016052612 -22 594 -22 c 256
610 85 m 256
 389.971533994 85 299.957175503 189.159029316 299.957175503 349.223422459 c 0
 299.957175503 375.391680883 302.363044446 403.054156239 307 432 c 256
 326 554 361 687 527 734 c 257
 1022 201 l 257
 946 99 842 85 610 85 c 256
EndSplineSet
EndChar

StartChar: approxequal
Encoding: 483 8776 187
Width: 795
VWidth: 0
Flags: HW
PickledData: "(dp1
S'org.robofab.postScriptHintData'
p2
(dp3
s."
LayerCount: 2
Fore
SplineSet
490 573 m 256
 601 573 701 647 725 798 c 257
 635 798 l 257
 628 742 595 707 519 707 c 256
 453 707 394 811 266 811 c 256
 155 811 53 737 29 586 c 257
 120 586 l 257
 129 643 160 677 235 677 c 256
 301 677 363 573 490 573 c 256
530 827 m 256
 641 827 742 901 766 1052 c 257
 676 1052 l 257
 667 995 636 960 560 960 c 256
 495 960 433 1065 306 1065 c 256
 195 1065 94 990 71 840 c 257
 161 840 l 257
 168 896 201 931 276 931 c 256
 342 931 403 827 530 827 c 256
EndSplineSet
EndChar

StartChar: asciicircum
Encoding: 63 94 189
Width: 1257
VWidth: 0
Flags: HW
PickledData: "(dp1
S'org.robofab.postScriptHintData'
p2
(dp3
s."
LayerCount: 2
Fore
SplineSet
152 695 m 257
 320 695 l 257
 664 1190 l 257
 854 695 l 257
 1026 695 l 257
 776 1283 l 257
 576 1283 l 257
 152 695 l 257
EndSplineSet
EndChar

StartChar: asciitilde
Encoding: 95 126 190
Width: 795
VWidth: 0
Flags: HW
PickledData: "(dp1
S'org.robofab.postScriptHintData'
p2
(dp3
s."
LayerCount: 2
Fore
SplineSet
526 1198 m 256
 637 1198 742 1302 766 1453 c 257
 676 1453 l 257
 667 1397 630 1332 555 1332 c 256
 489 1332 397 1466 269 1466 c 256
 158 1466 53 1362 29 1211 c 257
 120 1211 l 257
 129 1268 165 1332 240 1332 c 256
 307 1332 400 1198 526 1198 c 256
EndSplineSet
EndChar

StartChar: asterisk
Encoding: 11 42 191
Width: 1040
VWidth: 0
Flags: HW
PickledData: "(dp1
S'org.robofab.postScriptHintData'
p2
(dp3
s."
LayerCount: 2
Fore
SplineSet
364 599 m 257
 542 599 l 257
 562 912 l 257
 779 722 l 257
 899 875 l 257
 641 1017 l 257
 951 1134 l 257
 895 1295 l 257
 595 1121 l 257
 676 1446 l 257
 498 1446 l 257
 477 1133 l 257
 260 1323 l 257
 140 1170 l 257
 398 1028 l 257
 89 911 l 257
 144 750 l 257
 444 924 l 257
 364 599 l 257
EndSplineSet
EndChar

StartChar: at
Encoding: 33 64 192
Width: 2048
VWidth: 0
Flags: HW
PickledData: "(dp1
S'org.robofab.postScriptHintData'
p2
(dp3
s."
LayerCount: 2
Fore
SplineSet
990 -127 m 256
 1200 -127 1422 -77 1505 -28 c 257
 1475 76 l 257
 1403 26 1206 -24 991 -24 c 256
 682.805317357 -24 518.525729274 80.6655233158 518.525729274 227.273929894 c 0
 518.525729274 237.646733231 519.348082018 248.22949476 521 259 c 258
 647 1053 l 258
 672 1208 861 1338 1170 1338 c 256
 1495.4244373 1338 1563.8312211 1238.86461936 1563.8312211 1107.13424105 c 0
 1563.8312211 1070.46965237 1558.53189154 1031.27999783 1552 991 c 257
 1550 991 1468 973 1272 927 c 256
 858 836 766 753 741 596 c 256
 738.555866296 579.123838707 737.236051262 561.895481204 737.236051262 544.625514453 c 0
 737.236051262 413.511904195 813.308188881 280 1051 280 c 256
 1303 280 1436 402 1495 477 c 257
 1500 394 1511 304 1669 304 c 257
 1708 421 l 257
 1618.84839033 421 1597.60929746 437.276553611 1597.60929746 479.080249355 c 0
 1597.60929746 493.076328984 1599.99007829 509.933855238 1603 530 c 257
 1602.52136553 524.936084111 1599.58167423 502.673154395 1599.58167423 500.794653444 c 0
 1599.58167423 497.031681618 1612.32234617 575.065759582 1685 1037 c 256
 1686.67695766 1048.06792053 1705.00206224 1099.18138367 1705.00206224 1162.23351523 c 0
 1705.00206224 1287.17698189 1633.04490144 1459 1217 1459 c 256
 684 1459 523 1222 484 970 c 258
 382 322 l 258
 379.046866455 303.372542254 377.267713374 283.184077517 377.267713374 262.029521242 c 0
 377.267713374 96.9349781305 485.628191814 -127 990 -127 c 256
1089 389 m 256
 971.464475388 389 907.747143794 442.818193018 907.747143794 549.134693911 c 0
 907.747143794 564.932146802 909.153937344 581.88869219 912 600 c 256
 929 688 984 738 1237 799 c 256
 1460 854 1504 861 1533 874 c 257
 1491 609 l 257
 1421 464 1217 389 1089 389 c 256
EndSplineSet
EndChar

StartChar: b
Encoding: 67 98 194
Width: 1187
VWidth: 0
Flags: HW
PickledData: "(dp1
S'org.robofab.postScriptHintData'
p2
(dp3
s."
AnchorPoint: "top" 690 1052 basechar 0
LayerCount: 2
Fore
SplineSet
482 -21 m 256
 767 -21 940 150 975 366 c 258
 1032 726 l 258
 1035.57245538 748.905743304 1037.33432275 770.795790896 1037.33432275 791.630702258 c 0
 1037.33432275 969.087137163 909.521801318 1070 684 1070 c 256
 579 1070 450 1034 373 992 c 257
 454 1500 l 257
 316 1500 l 257
 78 0 l 257
 188 0 l 257
 223 75 l 257
 266 46 351 -21 482 -21 c 256
483 101 m 256
 385 101 301 140 243 171 c 257
 354 878 l 257
 461 923 598 953 680 953 c 256
 814.009217753 953 900.293118803 897.185646568 900.293118803 784.829419244 c 0
 900.293118803 772.260823097 899.21340409 758.984689479 897 745 c 258
 833 337 l 258
 810 194 650 101 483 101 c 256
EndSplineSet
EndChar

StartChar: backslash
Encoding: 61 92 195
Width: 614
VWidth: 0
Flags: HW
PickledData: "(dp1
S'org.robofab.postScriptHintData'
p2
(dp3
s."
LayerCount: 2
Fore
SplineSet
310 0 m 257
 457 0 l 257
 311 1500 l 257
 157 1500 l 257
 310 0 l 257
EndSplineSet
EndChar

StartChar: bar
Encoding: 93 124 196
Width: 643
VWidth: 0
Flags: HW
PickledData: "(dp1
S'org.robofab.postScriptHintData'
p2
(dp3
s."
LayerCount: 2
Fore
SplineSet
117 -192 m 257
 255 -192 l 257
 526 1523 l 257
 388 1523 l 257
 117 -192 l 257
EndSplineSet
EndChar

StartChar: braceleft
Encoding: 92 123 198
Width: 928
VWidth: 0
Flags: HW
PickledData: "(dp1
S'org.robofab.postScriptHintData'
p2
(dp3
s."
LayerCount: 2
Fore
SplineSet
742 -254 m 257
 742 -254 763 -117 764 -117 c 257
 512.706007164 -117 447.067816434 -85.5329148972 447.067816434 38.9292712669 c 0
 447.067816434 86.3310366103 456.588558149 147.221631066 469 225 c 258
 474 254 l 257
 485.157865538 326.06121493 491.992885125 400.067710538 491.992885125 461.850827506 c 0
 491.992885125 532.960045745 482.938646373 587.87715405 461 605 c 257
 517 643 561 790 586 955 c 257
 590 976 l 257
 636 1266 649 1339 995 1339 c 257
 1017 1476 l 257
 472 1476 492 1237 452 990 c 257
 451 986 l 257
 405.55 694.542857143 352.813571429 653.947040816 266.132051385 653.947040816 c 0
 232.660969388 653.947040816 194.128571429 660 149 660 c 257
 134 561 l 257
 175.171270718 561 212.208845884 565.456640518 243.520481923 565.456640518 c 0
 309.690265679 565.456640518 350.288641706 545.553779299 350.288641706 421.628017826 c 0
 350.288641706 374.893281215 346.13771986 290.596786062 328 212 c 257
 314.359777796 125.400449726 297.197679895 46.850901044 297.197679895 -20.0417185523 c 0
 297.197679895 -164.024156529 376.709741379 -254 742 -254 c 257
EndSplineSet
EndChar

StartChar: braceright
Encoding: 94 125 199
Width: 929
VWidth: 0
Flags: HW
PickledData: "(dp1
S'org.robofab.postScriptHintData'
p2
(dp3
s."
LayerCount: 2
Fore
SplineSet
-39 -254 m 257
 497 -254 479 -61 523 212 c 257
 526 225 l 257
 572.243093923 527.071823204 627.943316749 565.456640518 720.485464879 565.456640518 c 0
 752.018344983 565.456640518 787.828729282 561 829 561 c 257
 844 660 l 257
 799.15 660 759.03372449 653.947040816 725.834562318 653.947040816 c 0
 664.214436684 653.947040816 626.423858957 674.79956611 626.423858957 793.912306791 c 0
 626.423858957 840.995168747 632.328490522 903.430809207 645 986 c 257
 647 990 l 257
 659.925856455 1071.86375755 679.113009826 1152.84873658 679.113009826 1224.54493421 c 0
 679.113009826 1369.1710915 601.038009633 1476 236 1476 c 257
 236 1476 215 1339 214 1339 c 257
 462.642076827 1339 527.957587105 1301.30186096 527.957587105 1172.46661401 c 0
 527.957587105 1122.02007562 517.943538919 1057.60057145 505 976 c 257
 501 955 l 257
 489.512420206 879.181973363 482.458847261 807.164524024 482.458847261 747.776559943 c 0
 482.458847261 677.920668599 492.218140437 625.538878714 516 605 c 257
 463 573 415 409 391 254 c 257
 385 225 l 257
 341 -57 332 -117 -17 -117 c 257
 -16 -117 -39 -254 -39 -254 c 257
EndSplineSet
EndChar

StartChar: bracketleft
Encoding: 60 91 200
Width: 724
VWidth: 0
Flags: HW
PickledData: "(dp1
S'org.robofab.postScriptHintData'
p2
(dp3
s."
LayerCount: 2
Fore
SplineSet
159 -68 m 257
 475 -68 l 257
 493 50 l 257
 315 50 l 257
 524 1375 l 257
 703 1375 l 257
 721 1491 l 257
 406 1491 l 257
 159 -68 l 257
EndSplineSet
EndChar

StartChar: bracketright
Encoding: 62 93 201
Width: 724
VWidth: 0
Flags: HW
PickledData: "(dp1
S'org.robofab.postScriptHintData'
p2
(dp3
s."
LayerCount: 2
Fore
SplineSet
101 -68 m 257
 417 -68 l 257
 663 1491 l 257
 348 1491 l 257
 329 1373 l 257
 507 1373 l 257
 298 48 l 257
 120 48 l 257
 101 -68 l 257
EndSplineSet
EndChar

StartChar: breve
Encoding: 406 728 202
Width: 512
VWidth: 0
Flags: HW
PickledData: "(dp1
S'org.robofab.postScriptHintData'
p2
(dp3
s."
AnchorPoint: "top" 206 1052 mark 0
LayerCount: 2
Fore
SplineSet
241 1340 m 257
 387 1340 469 1460 479 1524 c 257
 363 1524 l 257
 355 1474 304 1440 258 1440 c 256
 214.98498585 1440 176.995661449 1468.47890857 176.995661449 1511.63799494 c 0
 176.995661449 1515.63632789 177.321704536 1519.76065335 178 1524 c 257
 63 1524 l 257
 62.09450573 1518.20483667 61.6235689927 1511.95051821 61.6235689927 1505.36771279 c 0
 61.6235689927 1439.25204137 109.129666915 1340 241 1340 c 257
EndSplineSet
EndChar

StartChar: brokenbar
Encoding: 103 166 203
Width: 617
VWidth: 0
Flags: HW
PickledData: "(dp1
S'org.robofab.postScriptHintData'
p2
(dp3
s."
LayerCount: 2
Fore
SplineSet
96 -195 m 257
 256 -195 l 257
 360 467 l 257
 200 467 l 257
 96 -195 l 257
265 877 m 257
 425 877 l 257
 540 1602 l 257
 380 1602 l 257
 265 877 l 257
EndSplineSet
EndChar

StartChar: bullet
Encoding: 460 8226 204
Width: 946
VWidth: 0
Flags: HW
PickledData: "(dp1
S'org.robofab.postScriptHintData'
p2
(dp3
s."
LayerCount: 2
Fore
SplineSet
424 243 m 256
 672 243 741 334 773 534 c 256
 779.137234309 572.933080149 782.699668669 607.709697523 782.699668669 638.492106347 c 0
 782.699668669 768.211485912 719.436434104 827 519 827 c 256
 275 827 205 737 173 534 c 256
 166.79882968 495.048898928 163.188832622 460.266207016 163.188832622 429.499100696 c 0
 163.188832622 301.498208162 225.671496835 243 424 243 c 256
EndSplineSet
EndChar

StartChar: bulletoperator
Encoding: 479 8729 205
Width: 992
VWidth: 0
Flags: HW
PickledData: "(dp1
S'org.robofab.postScriptHintData'
p2
(dp3
s."
LayerCount: 2
Fore
SplineSet
515 -231 m 256
 316.888083182 -231 59.147181869 -77.9226069687 59.147181869 114.885791305 c 0
 59.147181869 126.455626748 60.0752627229 138.168526738 62 150 c 256
 95 360 254 383 463 383 c 256
 661.111916818 383 918.852818131 230.812591812 918.852818131 37.2653546067 c 0
 918.852818131 25.6511837255 917.924737277 13.8880831819 916 2 c 256
 883 -208 724 -231 515 -231 c 256
EndSplineSet
EndChar

StartChar: c
Encoding: 68 99 206
Width: 1075
VWidth: 0
Flags: HW
PickledData: "(dp1
S'org.robofab.postScriptHintData'
p2
(dp3
s."
AnchorPoint: "bot" 456 0 basechar 0
AnchorPoint: "top" 667 1052 basechar 0
LayerCount: 2
Fore
SplineSet
487 -21 m 256
 741 -21 865 59 927 268 c 257
 801 268 l 257
 756 122 712 94 502 94 c 256
 351.837530525 94 255.360722344 143.7381862 255.360722344 277.58777495 c 0
 255.360722344 294.378892748 256.878989026 312.493681409 260 332 c 258
 324 735 l 258
 349 894 447 953 636 953 c 256
 802.426743128 953 875.844738681 927.044070444 875.844738681 801.05468025 c 0
 875.844738681 778.666952596 873.526518909 753.120604981 869 724 c 257
 1004 739 l 257
 1008.83384 768.772059974 1011.15728232 795.997514618 1011.15728232 820.876578523 c 0
 1011.15728232 1022.45904681 858.622340022 1070 653 1070 c 256
 401 1070 217 934 188 743 c 257
 126 354 l 258
 122.573020969 331.779910154 120.832511832 309.889781809 120.832511832 288.528209181 c 0
 120.832511832 116.655815247 233.506097543 -21 487 -21 c 256
EndSplineSet
EndChar

StartChar: caron
Encoding: 404 711 208
Width: 512
VWidth: 0
Flags: HW
PickledData: "(dp1
S'org.robofab.postScriptHintData'
p2
(dp3
s."
AnchorPoint: "top" 186 1052 mark 0
LayerCount: 2
Fore
SplineSet
290 1330 m 257
 532 1576 l 257
 386 1576 l 257
 255 1432 l 257
 163 1576 l 257
 13 1576 l 257
 185 1330 l 257
 290 1330 l 257
EndSplineSet
EndChar

StartChar: caron.alt
Encoding: 495 -1 209
Width: 600
VWidth: 0
Flags: HW
PickledData: "(dp1
S'org.robofab.postScriptHintData'
p2
(dp3
s."
AnchorPoint: "caron.alt" 200 1052 mark 0
LayerCount: 2
Fore
SplineSet
660 1239 m 257
 723 1292 844 1410 874 1595 c 257
 898 1754 l 257
 680 1754 l 257
 647 1547 l 257
 774 1547 l 257
 753 1418 653 1335 601 1282 c 257
 660 1239 l 257
EndSplineSet
EndChar

StartChar: cedilla
Encoding: 121 184 214
Width: 512
VWidth: 0
Flags: HW
PickledData: "(dp1
S'org.robofab.postScriptHintData'
p2
(dp3
s."
AnchorPoint: "bot" 249 0 mark 0
LayerCount: 2
Fore
SplineSet
341.95521255 -282.881762318 m 0
 341.95521255 -347.716834563 282.646664414 -403 170 -403 c 256
 148 -403 122 -401 96 -396 c 257
 84 -480 l 257
 116 -485 147 -487 174 -487 c 256
 340 -487 437 -398 450 -304 c 256
 451.367673526 -296.477795607 452.041204736 -288.911750647 452.041204736 -281.348083966 c 0
 452.041204736 -200.426695834 374.947377053 -119.77753052 246 -96 c 257
 252 -6 l 257
 217 -6 l 257
 193 -156 l 257
 287.759870475 -158.787055014 341.95521255 -221.126290018 341.95521255 -282.881762318 c 0
EndSplineSet
EndChar

StartChar: cent
Encoding: 99 162 215
Width: 1112
VWidth: 0
Flags: HW
PickledData: "(dp1
S'org.robofab.postScriptHintData'
p2
(dp3
s."
LayerCount: 2
Fore
SplineSet
618 1017 m 257
 727 1017 l 257
 766 1269 l 257
 657 1269 l 257
 618 1017 l 257
425 -200 m 257
 534 -200 l 257
 573 52 l 257
 464 52 l 257
 425 -200 l 257
EndSplineSet
Refer: 206 99 N 1 0 0 1 0 0 2
EndChar

StartChar: circumflex
Encoding: 403 710 216
Width: 512
VWidth: 0
Flags: HW
PickledData: "(dp1
S'org.robofab.postScriptHintData'
p2
(dp3
s."
AnchorPoint: "top" 186 1052 mark 0
LayerCount: 2
Fore
SplineSet
-26 1330 m 257
 124 1330 l 257
 263 1474 l 257
 347 1330 l 257
 494 1330 l 257
 329 1576 l 257
 224 1576 l 257
 -26 1330 l 257
EndSplineSet
EndChar

StartChar: comma
Encoding: 13 44 218
Width: 565
VWidth: 0
Flags: HW
PickledData: "(dp1
S'org.robofab.postScriptHintData'
p2
(dp3
s."
LayerCount: 2
Fore
SplineSet
194 -307 m 257
 257 -255 377 -137 407 48 c 258
 432 207 l 257
 214 207 l 257
 181 0 l 257
 307 0 l 257
 287 -128 187 -211 135 -265 c 257
 194 -307 l 257
EndSplineSet
EndChar

StartChar: copyright
Encoding: 106 169 219
Width: 1789
VWidth: 0
Flags: HW
PickledData: "(dp1
S'org.robofab.postScriptHintData'
p2
(dp3
s."
LayerCount: 2
Fore
SplineSet
836 287 m 256
 1112 287 1183 422 1211 598 c 257
 1216 632 l 257
 1100 632 l 257
 1090 571 l 258
 1066 419 1003 376 850 376 c 256
 717.025066356 376 644.51171102 408.909466674 644.51171102 518.918249123 c 0
 644.51171102 534.657489057 645.996042154 551.974933644 649 571 c 258
 700 890 l 258
 724 1042 812 1091 963 1091 c 256
 1091.06443441 1091 1146.72361714 1056.21708498 1146.72361714 954.355264832 c 0
 1146.72361714 935.317033891 1144.77929983 913.935565594 1141 890 c 258
 1131 826 l 257
 1248 836 l 257
 1252 861 l 258
 1257.621449 896.279438562 1261.13869042 929.943146302 1261.13869042 961.291889981 c 0
 1261.13869042 1091.66542937 1200.30546988 1182 977 1182 c 256
 689 1182 605 1050 576 868 c 258
 532 590 l 258
 527.476171503 561.079810677 524.857887357 533.595305455 524.857887357 507.837484604 c 0
 524.857887357 374.168619801 595.369242099 287 836 287 c 256
795 82 m 256
 469.714709399 82 257.829777148 301.613370044 257.829777148 608.813688599 c 0
 257.829777148 645.375966094 260.831172678 683.178931509 267 722 c 256
 325 1086 633 1361 997 1361 c 256
 1323.69165649 1361 1533.26326276 1141.89786522 1533.26326276 835.970437395 c 0
 1533.26326276 799.160496944 1530.22919105 761.093543816 1524 722 c 256
 1466 357 1161 82 795 82 c 256
778 -14 m 256
 1194 -14 1564 303 1630 722 c 256
 1636.67289479 764.160562537 1639.91115956 805.298913759 1639.91115956 845.190783885 c 0
 1639.91115956 1199.8598219 1383.94054193 1456 1010 1456 c 257
 597 1456 224 1139 158 722 c 256
 151.380349163 679.975246958 148.170915147 638.976576853 148.170915147 599.220915831 c 0
 148.170915147 242.600137682 406.422966603 -14 778 -14 c 256
EndSplineSet
EndChar

StartChar: currency
Encoding: 101 164 220
Width: 1163
VWidth: 0
Flags: HW
PickledData: "(dp1
S'org.robofab.postScriptHintData'
p2
(dp3
s."
LayerCount: 2
Fore
SplineSet
333 844 m 257
 283.058787202 781.573484002 250.64135288 712.553856445 250.64135288 613.410034974 c 0
 250.64135288 589.00310562 252.843458848 565.345011658 258 543 c 257
 82 429 l 257
 120 346 l 257
 292 461 l 257
 342 385 421 347 508 347 c 256
 605 347 712 396 784 487 c 257
 946 371 l 257
 1011 452 l 257
 839 576 l 257
 857.925966415 619.675307111 869.374976542 664.969259614 869.374976542 721.012397496 c 0
 869.374976542 765.715955296 859.796581455 806.967070832 846 844 c 257
 1083 997 l 257
 1044 1080 l 257
 794 918 l 257
 746 969 678 990 611 990 c 256
 544 990 470 970 406 918 c 257
 220 1057 l 257
 152 974 l 257
 333 844 l 257
812.603718622 716.554777478 m 0
 812.603718622 533.581024695 654.465487393 394 518 394 c 256
 403.8908687 394 312.828973821 490.16260714 312.828973821 620.849537193 c 0
 312.828973821 806.292010175 467.866812914 947 605 947 c 256
 720.912685598 947 812.603718622 850.113389706 812.603718622 716.554777478 c 0
EndSplineSet
EndChar

StartChar: d
Encoding: 69 100 221
Width: 1183
VWidth: 0
Flags: HW
PickledData: "(dp1
S'org.robofab.postScriptHintData'
p2
(dp3
s."
AnchorPoint: "mid" 992 1252 basechar 0
AnchorPoint: "caron.alt" 795 1052 basechar 0
AnchorPoint: "top" 654 1052 basechar 0
LayerCount: 2
Fore
SplineSet
448 -21 m 256
 557 -21 691 27 756 74 c 257
 775 0 l 257
 870 0 l 257
 1108 1500 l 257
 970 1500 l 257
 896 1029 l 257
 832 1053 717 1070 647 1070 c 256
 342 1070 186 946 151 724 c 258
 91 342 l 258
 86.4148693294 314.62815933 83.9533167665 287.854781582 83.9533167665 262.041982242 c 0
 83.9533167665 102.075479004 178.489269694 -21 448 -21 c 256
467 101 m 256
 330.653781498 101 221.103172275 163.802209246 221.103172275 286.341627741 c 0
 221.103172275 297.71405188 222.046731715 309.600992626 224 322 c 258
 292 754 l 257
 316 897 456 953 618 953 c 256
 713 953 814 938 876 905 c 257
 760 176 l 257
 713 149 593 101 467 101 c 256
EndSplineSet
EndChar

StartChar: dagger
Encoding: 458 8224 222
Width: 810
VWidth: 0
Flags: HW
PickledData: "(dp1
S'org.robofab.postScriptHintData'
p2
(dp3
s."
LayerCount: 2
Fore
SplineSet
190 0 m 257
 368 0 l 257
 523 975 l 257
 798 975 l 257
 815 1088 l 257
 540 1088 l 257
 610 1519 l 257
 432 1519 l 257
 363 1088 l 257
 97 1088 l 257
 80 975 l 257
 346 975 l 257
 190 0 l 257
EndSplineSet
EndChar

StartChar: daggerdbl
Encoding: 459 8225 223
Width: 886
VWidth: 0
Flags: HW
PickledData: "(dp1
S'org.robofab.postScriptHintData'
p2
(dp3
s."
LayerCount: 2
Fore
SplineSet
229 0 m 257
 407 0 l 257
 474 425 l 257
 784 425 l 257
 801 519 l 257
 490 519 l 257
 561 966 l 257
 871 966 l 257
 885 1061 l 257
 575 1061 l 257
 649 1519 l 257
 471 1519 l 257
 397 1061 l 257
 95 1061 l 257
 81 966 l 257
 383 966 l 257
 312 519 l 257
 10 519 l 257
 -6 425 l 257
 296 425 l 257
 229 0 l 257
EndSplineSet
EndChar

StartChar: degree
Encoding: 113 176 227
Width: 1073
VWidth: 0
Flags: HW
PickledData: "(dp1
S'org.robofab.postScriptHintData'
p2
(dp3
s."
LayerCount: 2
Fore
SplineSet
785.883674733 1134.61061779 m 0
 785.883674733 956.311270675 632.199078246 821 494 821 c 256
 379.99891495 821 289.365129446 915.274967136 289.365129446 1043.06807538 c 0
 289.365129446 1222.24267932 444.735613158 1356 580 1356 c 256
 694.555860501 1356 785.883674733 1263.08781492 785.883674733 1134.61061779 c 0
586 1407 m 256
 435.370803579 1407 230.131332381 1250.7834547 230.131332381 1038.37150963 c 0
 230.131332381 879.537023597 356.738188076 767 485 767 c 256
 634.922260754 767 843.623418606 920.188739893 843.623418606 1133.74055768 c 0
 843.623418606 1292.11237415 716.476747359 1407 586 1407 c 256
EndSplineSet
EndChar

StartChar: dieresis
Encoding: 105 168 228
Width: 1060
VWidth: 0
Flags: HW
PickledData: "(dp1
S'org.robofab.postScriptHintData'
p2
(dp3
s."
AnchorPoint: "top" 456 1052 mark 0
LayerCount: 2
Fore
SplineSet
172 1402 m 257
 343 1402 l 257
 367 1552 l 257
 195 1552 l 257
 172 1402 l 257
672 1402 m 257
 842 1402 l 257
 865 1552 l 257
 695 1552 l 257
 672 1402 l 257
EndSplineSet
EndChar

StartChar: divide
Encoding: 184 247 229
Width: 1038
VWidth: 0
Flags: HW
PickledData: "(dp1
S'org.robofab.postScriptHintData'
p2
(dp3
s."
LayerCount: 2
Fore
SplineSet
356 88 m 257
 547 88 l 257
 578 285 l 257
 387 285 l 257
 356 88 l 257
82 468 m 257
 934 468 l 257
 953 589 l 257
 101 589 l 257
 82 468 l 257
468 784 m 257
 659 784 l 257
 690 981 l 257
 499 981 l 257
 468 784 l 257
EndSplineSet
EndChar

StartChar: dollar
Encoding: 5 36 230
Width: 1316
VWidth: 0
Flags: HW
PickledData: "(dp1
S'org.robofab.postScriptHintData'
p2
(dp3
s."
LayerCount: 2
Fore
SplineSet
451 -408 m 257
 561 -408 l 257
 905 1758 l 257
 795 1758 l 257
 451 -408 l 257
EndSplineSet
Refer: 123 83 N 1 0 0 1 0 0 2
EndChar

StartChar: dotaccent
Encoding: 407 729 231
Width: 526
VWidth: 0
Flags: HW
PickledData: "(dp1
S'org.robofab.postScriptHintData'
p2
(dp3
s."
AnchorPoint: "top" 190 1052 mark 0
LayerCount: 2
Fore
SplineSet
155 1373 m 257
 303 1373 l 257
 330 1553 l 257
 182 1553 l 257
 155 1373 l 257
EndSplineSet
EndChar

StartChar: dotlessi
Encoding: 242 305 232
Width: 548
VWidth: 0
Flags: HW
PickledData: "(dp1
S'org.robofab.postScriptHintData'
p2
(dp3
s."
AnchorPoint: "ogonek" 218 0 basechar 0
AnchorPoint: "top" 374 1052 basechar 0
LayerCount: 2
Fore
SplineSet
122 0 m 257
 272 0 l 257
 439 1052 l 257
 289 1052 l 257
 122 0 l 257
EndSplineSet
EndChar

StartChar: dotlessj
Encoding: 400 567 233
Width: 548
VWidth: 0
Flags: HW
PickledData: "(dp1
S'org.robofab.postScriptHintData'
p2
(dp3
s."
AnchorPoint: "top" 421 1052 basechar 0
LayerCount: 2
Fore
SplineSet
-79 -367 m 257
 -39 -367 l 258
 -29.4834605598 -367 -20.1236071454 -367.034470926 -10.9225448515 -367.034470926 c 0
 144.240823832 -367.034470926 254.246819338 -357.231552163 309 -7 c 258
 477 1052 l 257
 340 1052 l 257
 168 -32 l 258
 137.705660377 -219.656603774 84.7509006764 -234.52750445 -8.14552163195 -234.52750445 c 0
 -25.6417087932 -234.52750445 -44.5547169811 -234 -65 -234 c 258
 -84 -234 l 257
 -79 -367 l 257
EndSplineSet
EndChar

StartChar: e
Encoding: 70 101 236
Width: 1112
VWidth: 0
Flags: HW
PickledData: "(dp1
S'org.robofab.postScriptHintData'
p2
(dp3
s."
AnchorPoint: "bot" 498 0 basechar 0
AnchorPoint: "ogonek" 609 0 basechar 0
AnchorPoint: "top" 647 1052 basechar 0
LayerCount: 2
Fore
SplineSet
495 -21 m 256
 798 -21 859 32 931 253 c 257
 817 253 l 257
 770.17791411 97.9018404908 721.452783319 95.9987955888 526.029743368 95.9987955888 c 0
 521.113440476 95.9987955888 516.104294479 96 511 96 c 256
 317.716004992 96 259.031529744 153.412117433 259.031529744 277.916794218 c 0
 259.031529744 309.297408301 262.759520022 344.940144656 269 385 c 258
 289 519 l 257
 975 519 l 257
 1014 766 l 258
 1017.18645739 785.735478 1018.77751403 804.625710575 1018.77751403 822.63594497 c 0
 1018.77751403 979.841380738 897.555350906 1070 658 1070 c 257
 339 1070 217 924 186 736 c 257
 132 397 l 258
 125.169506037 351.98879619 121.22239859 309.922327547 121.22239859 271.149795384 c 0
 121.22239859 88.5432058526 208.773882186 -21 495 -21 c 256
305 622 m 257
 327 753 l 257
 349 894 461 953 635 953 c 256
 786.503243389 953 882.041058563 919.25613887 882.041058563 813.689327273 c 0
 882.041058563 802.891253589 881.041488895 791.341728319 879 779 c 258
 854 622 l 257
 305 622 l 257
EndSplineSet
EndChar

StartChar: eight
Encoding: 25 56 245
Width: 1173
VWidth: 0
Flags: HW
PickledData: "(dp1
S'org.robofab.postScriptHintData'
p2
(dp3
s."
LayerCount: 2
Fore
SplineSet
435 767 m 257
 272.201545747 699.635122378 63.173578146 557.639002711 63.173578146 283.067330426 c 0
 63.173578146 66.8145218929 226.79772418 -23 465 -23 c 256
 733 -23 949 93 992 363 c 256
 995.476433482 385.596817631 997.097132117 407.037297971 997.097132117 427.388079638 c 0
 997.097132117 617.77860624 855.246672732 712.794055803 764 767 c 257
 893 838 1052 886 1085 1096 c 256
 1089.10807133 1122.01778512 1091.04801332 1146.18240562 1091.04801332 1168.62049296 c 0
 1091.04801332 1408.35608876 869.594732497 1451 705 1451 c 256
 518 1451 261 1399 213 1092 c 256
 210.057915779 1072.82899959 208.674066423 1055.01807702 208.674066423 1038.42020135 c 0
 208.674066423 880.130443958 334.534559629 832.166772133 435 767 c 257
493 108 m 256
 329.663961144 108 204.98798014 141.022132748 204.98798014 301.033373118 c 0
 204.98798014 536.654036811 407.015251113 613.829383968 585 699 c 257
 709.149092075 627.269413468 854.440841302 557.230239507 854.440841302 403.332082318 c 0
 854.440841302 389.88103966 853.330935776 375.789385616 851 361 c 256
 818 149 670 108 493 108 c 256
605 832 m 257
 492.481627915 891.513849698 356.615781647 948.433535597 356.615781647 1071.10821042 c 0
 356.615781647 1080.3554198 357.387789735 1089.97625792 359 1100 c 256
 380 1238 472 1316 683 1316 c 256
 866.832442971 1316 942.870353346 1256.63489509 942.870353346 1146.18902151 c 0
 942.870353346 957.042626174 765.34993522 902.423958036 605 832 c 257
EndSplineSet
EndChar

StartChar: emdash
Encoding: 450 8212 249
Width: 1185
VWidth: 0
Flags: HW
PickledData: "(dp1
S'org.robofab.postScriptHintData'
p2
(dp3
s."
LayerCount: 2
Fore
SplineSet
-9 413 m 257
 1172 413 l 257
 1193 543 l 257
 12 543 l 257
 -9 413 l 257
EndSplineSet
EndChar

StartChar: emptyset
Encoding: 473 8709 250
Width: 1552
VWidth: 0
Flags: HW
PickledData: "(dp1
S'org.robofab.postScriptHintData'
p2
(dp3
s."
LayerCount: 2
Fore
SplineSet
696 144 m 256
 421.952778077 144 242.548875193 329.27632795 242.548875193 588.490928801 c 0
 242.548875193 618.714284313 244.987799517 649.94280108 250 682 c 256
 300 987 560 1219 866 1219 c 256
 1140.00835749 1219 1316.82915058 1034.18430377 1316.82915058 777.603655616 c 0
 1316.82915058 746.71037522 1314.26576705 714.776713243 1309 682 c 256
 1261 375 1003 144 696 144 c 256
682 66 m 256
 1030 66 1340 331 1395 682 c 256
 1400.7264016 717.68775281 1403.50406199 752.497157176 1403.50406199 786.234677926 c 0
 1403.50406199 1082.42532062 1189.41450436 1296 877 1296 c 256
 531 1296 219 1031 163 682 c 256
 157.494840375 646.867072214 154.824992964 612.595758741 154.824992964 579.36556382 c 0
 154.824992964 280.605254316 370.632458729 66 682 66 c 256
114 44 m 257
 162 0 l 257
 1441 1283 l 257
 1394 1327 l 257
 114 44 l 257
EndSplineSet
EndChar

StartChar: endash
Encoding: 449 8211 251
Width: 433
VWidth: 0
Flags: HW
PickledData: "(dp1
S'org.robofab.postScriptHintData'
p2
(dp3
s."
LayerCount: 2
Fore
SplineSet
-82 702 m 257
 495 702 l 257
 511 804 l 257
 -65 804 l 257
 -82 702 l 257
EndSplineSet
EndChar

StartChar: eng
Encoding: 268 331 252
Width: 1209
VWidth: 0
Flags: HW
PickledData: "(dp1
S'org.robofab.postScriptHintData'
p2
(dp3
s."
LayerCount: 2
Fore
SplineSet
586 -287 m 257
 874 -287 935 -138 995 243 c 258
 1076 756 l 258
 1079.72986273 778.95300141 1081.8339293 801.782524632 1081.8339293 824.05163126 c 0
 1081.8339293 957.015254193 1006.82385991 1070 755 1070 c 256
 598 1070 510 1028 429 962 c 257
 443 1052 l 257
 306 1052 l 257
 139 0 l 257
 276 0 l 257
 396 753 l 258
 411 853 493 953 728 953 c 256
 872.102334556 953 946.386780576 900.431236867 946.386780576 816.137645524 c 0
 946.386780576 807.4231599 945.592832154 798.369600908 944 789 c 258
 857 236 l 258
 810.509445015 -60.0214929682 823.431856455 -176.003693737 613.061937477 -176.003693737 c 0
 601.706690275 -176.003693737 589.700864564 -175.665771126 577 -175 c 257
 586 -287 l 257
EndSplineSet
EndChar

StartChar: equal
Encoding: 30 61 254
Width: 1472
VWidth: 0
Flags: HW
PickledData: "(dp1
S'org.robofab.postScriptHintData'
p2
(dp3
s."
LayerCount: 2
Fore
SplineSet
256 525 m 257
 1146 525 l 257
 1166 658 l 257
 277 658 l 257
 256 525 l 257
306 844 m 257
 1195 844 l 257
 1216 977 l 257
 326 977 l 257
 306 844 l 257
EndSplineSet
EndChar

StartChar: estimated
Encoding: 471 8494 255
Width: 1195
VWidth: 0
Flags: HW
PickledData: "(dp1
S'org.robofab.postScriptHintData'
p2
(dp3
s."
LayerCount: 2
Fore
SplineSet
718 1232 m 256
 847 1232 964 1179 1017 1072 c 257
 971 779 l 257
 309 779 l 257
 356 1074 l 257
 449 1178 590 1232 718 1232 c 256
95 730 m 256
 88.8075202089 690.739678125 85.6827848949 652.737131485 85.6827848949 616.28301335 c 0
 85.6827848949 358.395289725 242.062846412 178 575 178 c 256
 781 178 929 267 1047 385 c 257
 1021 419 l 257
 885 296 709 240 576 240 c 256
 450 240 316 293 244 395 c 257
 294 715 l 257
 1107 715 l 257
 1114.88675307 764.898880027 1118.88595152 812.658454843 1118.88595152 857.779816141 c 0
 1118.88595152 1110.15867647 993.769471585 1280 724 1280 c 256
 404 1280 144 1041 95 730 c 256
EndSplineSet
EndChar

StartChar: eth
Encoding: 177 240 256
Width: 1066
VWidth: 0
Flags: HW
PickledData: "(dp1
S'org.robofab.postScriptHintData'
p2
(dp3
s."
LayerCount: 2
Fore
SplineSet
405 -18 m 257
 788 -18 807 155 831 308 c 258
 918 856 l 258
 928.357259684 920.215010042 943.348705545 1002.96676479 943.348705545 1087.82946352 c 0
 943.348705545 1207.80545117 913.384793689 1332.00065423 798 1414 c 257
 932 1545 l 257
 861 1594 l 257
 728 1461 l 257
 656.5435685 1479.26108805 588.554188705 1485.54508839 528.91164979 1485.54508839 c 0
 438.313590634 1485.54508839 366.97514985 1471.04529737 332 1462 c 257
 286 1357 l 257
 324.694867623 1363.25946388 382.818274782 1370.16654574 450.604389966 1370.16654574 c 0
 501.941458701 1370.16654574 558.820693074 1366.20490356 617 1355 c 257
 421 1143 l 257
 494 1094 l 257
 702 1316 l 257
 784.759937758 1252.62527289 831.942465642 1161.45569431 831.942465642 1040.00445327 c 0
 831.942465642 998.561809652 826.448673882 953.593260254 815 905 c 257
 791 928 726 975 580 975 c 256
 317 975 150 846 121 663 c 258
 62 297 l 258
 58.4759867722 274.471486865 56.5993480341 252.624099721 56.5993480341 231.643243569 c 0
 56.5993480341 85.9209875924 147.127996507 -18 405 -18 c 257
422 87 m 256
 299.293932612 87 190.632597326 125.003392746 190.632597326 252.07310694 c 0
 190.632597326 264.804233743 191.723345813 278.4294132 194 293 c 258
 255 676 l 257
 277 807 397 857 543 857 c 256
 603 857 746 841 792 811 c 257
 791.959678592 812.975748981 791.76165304 813.922356482 791.419099935 813.922356482 c 0
 783.864319537 813.922356482 705.802883033 353.498503724 699 318 c 257
 688 212 667 87 422 87 c 256
EndSplineSet
EndChar

StartChar: exclam
Encoding: 2 33 258
Width: 840
VWidth: 0
Flags: HW
PickledData: "(dp1
S'org.robofab.postScriptHintData'
p2
(dp3
s."
LayerCount: 2
Fore
SplineSet
219 0 m 257
 395 0 l 257
 425 183 l 257
 248 183 l 257
 219 0 l 257
338 348 m 257
 382 348 l 257
 382 348 533 881 621 1427 c 257
 453 1427 l 257
 365 881 338 348 338 348 c 257
EndSplineSet
EndChar

StartChar: f
Encoding: 71 102 260
Width: 784
VWidth: 0
Flags: HW
PickledData: "(dp1
S'org.robofab.postScriptHintData'
p2
(dp3
s."
AnchorPoint: "top" 475 1428 basechar 0
LayerCount: 2
Fore
SplineSet
191 0 m 257
 328 0 l 257
 474 928 l 257
 757 928 l 257
 778 1052 l 257
 495 1052 l 257
 529 1271 l 258
 542 1349 598 1399 711 1399 c 258
 846 1399 l 257
 847 1498 l 257
 732 1498 l 258
 536 1498 419 1442 393 1279 c 258
 357 1052 l 257
 160 1052 l 257
 139 928 l 257
 337 928 l 257
 191 0 l 257
EndSplineSet
EndChar

StartChar: five
Encoding: 22 53 267
Width: 1173
VWidth: 0
Flags: HW
PickledData: "(dp1
S'org.robofab.postScriptHintData'
p2
(dp3
s."
LayerCount: 2
Fore
SplineSet
860.416683863 538.564071328 m 0
 860.416683863 278.957307666 728.31882919 102 482 102 c 256
 222 102 185 169 126 221 c 257
 69 96 l 257
 176 35 244 -23 466 -23 c 256
 765.862795317 -23 990.480732378 213.023238359 990.480732378 557.721609954 c 0
 990.480732378 771.919269895 877.788755249 883 623 883 c 256
 521 883 432 842 362 790 c 257
 487 1312 l 257
 1038 1312 l 257
 1057 1428 l 257
 383 1428 l 257
 237 713 l 257
 336 681 l 257
 456 748 491 795 601 795 c 256
 793.531976149 795 860.416683863 694.874832965 860.416683863 538.564071328 c 0
EndSplineSet
EndChar

StartChar: florin
Encoding: 322 402 270
Width: 810
VWidth: 0
Flags: HW
PickledData: "(dp1
S'org.robofab.postScriptHintData'
p2
(dp3
s."
LayerCount: 2
Fore
SplineSet
53 -181 m 256
 238 -181 347 -117 379 85 c 258
 468 657 l 257
 572 657 l 257
 594 796 l 257
 491 796 l 257
 549 1159 l 257
 562 1252 602 1328 764 1328 c 256
 772 1328 773 1331 776 1330 c 257
 794 1440 l 257
 766 1443 729 1445 702 1445 c 256
 507 1445 405 1380 367 1139 c 258
 313 796 l 257
 214 796 l 257
 192 657 l 257
 291 657 l 257
 196 56 l 258
 182 -29 131 -64 8 -64 c 256
 -7 -64 -17 -66 -29 -65 c 257
 -47 -175 l 257
 -17 -179 23 -181 53 -181 c 256
EndSplineSet
EndChar

StartChar: four
Encoding: 21 52 272
Width: 1173
VWidth: 0
Flags: HW
PickledData: "(dp1
S'org.robofab.postScriptHintData'
p2
(dp3
s."
LayerCount: 2
Fore
SplineSet
636 0 m 257
 761 0 l 257
 823 392 l 257
 1030 392 l 257
 1047 493 l 257
 840 493 l 257
 891 822 l 257
 766 822 l 257
 715 493 l 257
 256 493 l 257
 969 1428 l 257
 818 1428 l 257
 92 494 l 257
 76 392 l 257
 698 392 l 257
 636 0 l 257
EndSplineSet
Substitution2: "'sups' Superscript lookup 10 subtable" foursuperior
EndChar

StartChar: foursuperior
Encoding: 466 8308 273
Width: 1010
VWidth: 0
Flags: HW
PickledData: "(dp1
S'org.robofab.postScriptHintData'
p2
(dp3
s."
LayerCount: 2
Fore
SplineSet
515 741 m 257
 612 741 l 257
 640 915 l 257
 758 915 l 257
 768 983 l 257
 650 983 l 257
 683 1188 l 257
 585 1188 l 257
 553 983 l 257
 290 983 l 257
 777 1532 l 257
 678 1532 l 257
 168 970 l 257
 160 915 l 257
 542 915 l 257
 515 741 l 257
EndSplineSet
EndChar

StartChar: fraction
Encoding: 465 8260 274
Width: 677
VWidth: 0
Flags: HW
PickledData: "(dp1
S'org.robofab.postScriptHintData'
p2
(dp3
s."
LayerCount: 2
Fore
SplineSet
-126 0 m 257
 28 0 l 257
 803 1500 l 257
 656 1500 l 257
 -126 0 l 257
EndSplineSet
EndChar

StartChar: g
Encoding: 72 103 275
Width: 1145
VWidth: 0
Flags: HW
PickledData: "(dp1
S'org.robofab.postScriptHintData'
p2
(dp3
s."
AnchorPoint: "top" 670 1052 basechar 0
LayerCount: 2
Fore
SplineSet
495 -388 m 256
 736 -388 886 -191 925 47 c 257
 1084 1051 l 257
 905 1051 l 257
 903 962 l 257
 903 1009 768 1070 666 1070 c 256
 406 1070 249 945 212 714 c 258
 160 387 l 258
 155.183777357 356.764824518 152.712212176 328.498445378 152.712212176 302.215229493 c 0
 152.712212176 132.038305978 256.325725485 45 498 45 c 256
 565 45 732 66 800 133 c 257
 775 -32 l 257
 749 -194 659 -279 456 -279 c 256
 346 -279 234 -260 205 -243 c 257
 152 -358 l 257
 229 -383 346 -388 495 -388 c 256
536 167 m 256
 395.754153137 167 288.277198791 201.449348543 288.277198791 313.478473078 c 0
 288.277198791 323.666558088 289.166069484 334.496254033 291 346 c 258
 354 743 l 258
 377 886 497 953 659 953 c 256
 831.47041571 953 904.355286165 907.159034724 904.355286165 805.640013458 c 0
 904.355286165 792.967333819 903.219544772 779.427041019 901 765 c 258
 822 266 l 257
 793 244 705 167 536 167 c 256
EndSplineSet
EndChar

StartChar: germandbls
Encoding: 160 223 282
Width: 1278
VWidth: 0
Flags: HW
PickledData: "(dp1
S'org.robofab.postScriptHintData'
p2
(dp3
s."
LayerCount: 2
Fore
SplineSet
104 0 m 257
 218 0 l 257
 397 1132 l 258
 429.38317757 1338.07476636 591.76679186 1340.00069875 736.73601743 1340.00069875 c 2
 745 1340 l 258
 753.37037037 1340 761.823045267 1340.04938272 770.285271554 1340.04938272 c 0
 862.667329892 1340.04938272 956.187729696 1334.16391513 956.187729696 1193.88977253 c 0
 956.187729696 1173.54945733 954.221354142 1150.38346339 950 1124 c 256
 927 982 858 923 618 923 c 257
 601 810 l 257
 633.296716749 811.484906517 664.337838472 812.433888328 693.856204379 812.433888328 c 0
 878.567597509 812.433888328 1003.65335658 775.275178034 1003.65335658 599.749904587 c 0
 1003.65335658 576.641762211 1001.48535986 551.135439119 997 523 c 256
 935 133 654 167 371 135 c 257
 370 12 l 257
 762 12 1036 97 1107 541 c 256
 1114.5304574 588.898647098 1117.83945351 630.000284314 1117.83945351 665.332140495 c 0
 1117.83945351 916.203779166 951.012399029 876.184905098 944 913 c 257
 1020 934 1060 972 1085 1143 c 256
 1089.24607211 1169.35062399 1091.35547417 1194.20401933 1091.35547417 1217.52317943 c 0
 1091.35547417 1380.92987384 987.776108901 1469 790 1469 c 256
 572 1469 329 1432 276 1094 c 258
 104 0 l 257
EndSplineSet
EndChar

StartChar: grave
Encoding: 65 96 283
Width: 652
VWidth: 0
Flags: HW
PickledData: "(dp1
S'org.robofab.postScriptHintData'
p2
(dp3
s."
AnchorPoint: "top" 251 1052 mark 0
LayerCount: 2
Fore
SplineSet
25 1586 m 257
 200 1196 l 257
 315 1196 l 257
 224 1586 l 257
 25 1586 l 257
EndSplineSet
EndChar

StartChar: greater
Encoding: 31 62 284
Width: 1386
VWidth: 0
Flags: HW
PickledData: "(dp1
S'org.robofab.postScriptHintData'
p2
(dp3
s."
LayerCount: 2
Fore
SplineSet
146 -19 m 257
 1197 488 l 257
 1228 678 l 257
 337 1182 l 257
 305 987 l 257
 1073 580 l 257
 177 169 l 257
 146 -19 l 257
EndSplineSet
EndChar

StartChar: guillemotleft
Encoding: 108 171 285
Width: 1072
VWidth: 0
Flags: HW
PickledData: "(dp1
S'org.robofab.postScriptHintData'
p2
(dp3
s."
LayerCount: 2
Fore
SplineSet
322 80 m 257
 473 150 l 257
 326 530 l 257
 593 910 l 257
 457 980 l 257
 113 530 l 257
 322 80 l 257
736 80 m 257
 885 150 l 257
 740 530 l 257
 1005 910 l 257
 871 980 l 257
 527 530 l 257
 736 80 l 257
EndSplineSet
EndChar

StartChar: guillemotright
Encoding: 124 187 286
Width: 1072
VWidth: 0
Flags: HW
PickledData: "(dp1
S'org.robofab.postScriptHintData'
p2
(dp3
s."
LayerCount: 2
Fore
SplineSet
183 80 m 257
 527 530 l 257
 318 980 l 257
 169 910 l 257
 314 530 l 257
 49 150 l 257
 183 80 l 257
597 80 m 257
 941 530 l 257
 732 980 l 257
 581 910 l 257
 728 530 l 257
 461 150 l 257
 597 80 l 257
EndSplineSet
EndChar

StartChar: guilsinglleft
Encoding: 463 8249 287
Width: 768
VWidth: 0
Flags: HW
PickledData: "(dp1
S'org.robofab.postScriptHintData'
p2
(dp3
s."
LayerCount: 2
Fore
SplineSet
383 80 m 257
 534 150 l 257
 387 530 l 257
 654 910 l 257
 518 980 l 257
 174 530 l 257
 383 80 l 257
EndSplineSet
EndChar

StartChar: guilsinglright
Encoding: 464 8250 288
Width: 768
VWidth: 0
Flags: HW
PickledData: "(dp1
S'org.robofab.postScriptHintData'
p2
(dp3
s."
LayerCount: 2
Fore
SplineSet
256 80 m 257
 600 530 l 257
 391 980 l 257
 240 910 l 257
 387 530 l 257
 120 150 l 257
 256 80 l 257
EndSplineSet
EndChar

StartChar: h
Encoding: 73 104 289
Width: 1195
VWidth: 0
Flags: HW
PickledData: "(dp1
S'org.robofab.postScriptHintData'
p2
(dp3
s."
AnchorPoint: "top" 634 913 basechar 0
LayerCount: 2
Fore
SplineSet
77 0 m 257
 215 0 l 257
 337 770 l 258
 353 871 432 961 667 961 c 256
 812.43571399 961 885.918853567 909.127213796 885.918853567 823.748423367 c 0
 885.918853567 815.785438892 885.279649624 807.530997491 884 799 c 258
 758 0 l 257
 896 0 l 257
 1015 760 l 258
 1018.54902003 781.840123252 1020.51428093 803.493921901 1020.51428093 824.605327621 c 0
 1020.51428093 958.155362052 941.868773525 1070 688 1070 c 256
 531 1070 448 1024 366 954 c 257
 452 1499 l 257
 314 1499 l 257
 77 0 l 257
EndSplineSet
EndChar

StartChar: hbar
Encoding: 232 295 290
Width: 1206
VWidth: 0
Flags: HW
PickledData: "(dp1
S'org.robofab.postScriptHintData'
p2
(dp3
s."
LayerCount: 2
Fore
SplineSet
126 1266 m 257
 992 1266 l 257
 1009 1378 l 257
 143 1378 l 257
 126 1266 l 257
EndSplineSet
Refer: 289 104 N 1 0 0 1 0 0 2
EndChar

StartChar: hungarumlaut
Encoding: 411 733 292
Width: 1024
VWidth: 0
Flags: HW
PickledData: "(dp1
S'org.robofab.postScriptHintData'
p2
(dp3
s."
AnchorPoint: "top" 374 1052 mark 0
LayerCount: 2
Fore
SplineSet
168 1375 m 257
 284 1375 l 257
 581 1765 l 257
 382 1765 l 257
 168 1375 l 257
578 1375 m 257
 694 1375 l 257
 991 1765 l 257
 792 1765 l 257
 578 1375 l 257
EndSplineSet
EndChar

StartChar: hyphen
Encoding: 14 45 293
AltUni2: 002015.ffffffff.0
Width: 1058
VWidth: 0
Flags: HW
PickledData: "(dp1
S'org.robofab.postScriptHintData'
p2
(dp3
s."
AnchorPoint: "mid" 526 566 mark 0
LayerCount: 2
Fore
SplineSet
186 502 m 257
 819 502 l 257
 840 642 l 257
 206 642 l 257
 186 502 l 257
EndSplineSet
EndChar

StartChar: infinity
Encoding: 481 8734 306
Width: 1411
VWidth: 0
Flags: HW
PickledData: "(dp1
S'org.robofab.postScriptHintData'
p2
(dp3
s."
LayerCount: 2
Fore
SplineSet
239 560 m 257
 414 560 686 806 686 806 c 257
 686 806 904 560 1079 560 c 256
 1307 560 1422 743 1440 853 c 256
 1441.95691032 865.067613635 1442.99190445 878.033504578 1442.99190445 891.559723955 c 0
 1442.99190445 1002.45001279 1373.42990377 1151 1172 1151 c 256
 997 1151 709 947 709 947 c 257
 709 947 507 1151 332 1151 c 256
 104 1151 -10 966 -28 856 c 256
 -29.99613855 843.801375528 -31.0576250863 830.668099042 -31.0576250863 816.957489306 c 0
 -31.0576250863 707.03390779 37.1735250468 560 239 560 c 257
121.530338936 808.750894484 m 0
 121.530338936 937.922839884 210.921386176 1081 323 1081 c 256
 389.966820127 1081 623.179926703 880.357930149 623.179926703 865.193166635 c 0
 623.179926703 864.597573493 622.820193067 864.288081019 622.076525829 864.288081019 c 0
 620.831550871 864.288081019 618.510556622 865.15547025 615 867 c 257
 618.873684211 868.796491228 621.392120653 869.644309018 622.682175115 869.644309018 c 0
 623.379024742 869.644309018 623.717451683 869.396929021 623.717451683 868.918065228 c 0
 623.717451683 854.49257107 316.601536442 630 249 630 c 0
 162.557387691 630 121.530338936 717.16858166 121.530338936 808.750894484 c 0
1268.46966106 900.988704406 m 0
 1268.46966106 771.128016904 1179.89207164 630 1068 630 c 256
 1001.05560031 630 768.794612706 846.057322808 768.794612706 864.306298577 c 0
 768.794612706 865.110968161 769.246192448 865.531043487 770.183436607 865.531043487 c 0
 771.486426375 865.531043487 773.728085868 864.719141324 777 863 c 257
 772.84962406 861.07518797 770.247781107 860.170671038 769.039302281 860.170671038 c 0
 768.501934329 860.170671038 768.240071741 860.349518234 768.240071741 860.697033162 c 0
 768.240071741 872.56078658 1073.43038752 1081 1141 1081 c 256
 1227.44261231 1081 1268.46966106 992.366400161 1268.46966106 900.988704406 c 0
EndSplineSet
EndChar

StartChar: integral
Encoding: 482 8747 307
Width: 1008
VWidth: 0
Flags: HW
PickledData: "(dp1
S'org.robofab.postScriptHintData'
p2
(dp3
s."
LayerCount: 2
Fore
SplineSet
143 -450 m 256
 328 -450 435 -386 468 -184 c 258
 687 1198 l 258
 702 1291 740 1367 902 1367 c 256
 910 1367 910 1370 916 1369 c 257
 932 1479 l 257
 904 1482 867 1484 840 1484 c 256
 645 1484 544 1420 505 1179 c 257
 286 -213 l 258
 272 -299 221 -333 98 -333 c 256
 83 -333 73 -335 59 -334 c 257
 43 -444 l 257
 74 -448 113 -450 143 -450 c 256
EndSplineSet
EndChar

StartChar: k
Encoding: 76 107 313
Width: 1105
VWidth: 0
Flags: HW
PickledData: "(dp1
S'org.robofab.postScriptHintData'
p2
(dp3
s."
AnchorPoint: "bot" 485 0 basechar 0
AnchorPoint: "top" 535 913 basechar 0
LayerCount: 2
Fore
SplineSet
77 0 m 257
 215 0 l 257
 264 310 l 257
 475 489 l 257
 804 0 l 257
 973 0 l 257
 560 584 l 257
 1081 1052 l 257
 938 1052 l 257
 291 477 l 257
 452 1500 l 257
 314 1500 l 257
 77 0 l 257
EndSplineSet
EndChar

StartChar: kgreenlandic
Encoding: 249 312 316
Width: 1109
VWidth: 0
Flags: HW
PickledData: "(dp1
S'org.robofab.postScriptHintData'
p2
(dp3
s."
LayerCount: 2
Fore
SplineSet
112 0 m 257
 249 0 l 257
 302 335 l 257
 507 507 l 257
 846 0 l 257
 998 0 l 257
 608 570 l 257
 1108 1052 l 257
 970 1052 l 257
 690 792 603 713 321 455 c 257
 415 1052 l 257
 278 1052 l 257
 112 0 l 257
EndSplineSet
EndChar

StartChar: l
Encoding: 77 108 317
Width: 667
VWidth: 0
Flags: HW
PickledData: "(dp1
S'org.robofab.postScriptHintData'
p2
(dp3
s."
AnchorPoint: "bot" 206 0 basechar 0
AnchorPoint: "caron.alt" 227 1052 basechar 0
AnchorPoint: "top" 400 1502 basechar 0
LayerCount: 2
Fore
SplineSet
409 -6 m 258
 427 -6 l 257
 470 126 l 257
 438 126 l 258
 312.595287106 126 265.541623816 139.448314484 265.541623816 237.881826457 c 0
 265.541623816 268.17629919 269.998538039 306.520554001 278 355 c 258
 459 1499 l 257
 321 1499 l 257
 141 361 l 258
 131.313445154 300.321958325 126.503744825 249.564641249 126.503744825 207.128558114 c 0
 126.503744825 17.3755459557 222.670462355 -6 409 -6 c 258
EndSplineSet
EndChar

StartChar: less
Encoding: 29 60 322
Width: 1386
VWidth: 0
Flags: HW
PickledData: "(dp1
S'org.robofab.postScriptHintData'
p2
(dp3
s."
LayerCount: 2
Fore
SplineSet
1058 -19 m 257
 1091 177 l 257
 322 583 l 257
 1218 996 l 257
 1249 1182 l 257
 198 677 l 257
 168 487 l 257
 1058 -19 l 257
EndSplineSet
EndChar

StartChar: logicalnot
Encoding: 109 172 324
Width: 768
VWidth: 0
Flags: HW
PickledData: "(dp1
S'org.robofab.postScriptHintData'
p2
(dp3
s."
LayerCount: 2
Fore
SplineSet
500 397 m 257
 622 397 l 257
 661 653 l 257
 99 653 l 257
 82 537 l 257
 522 537 l 257
 500 397 l 257
EndSplineSet
EndChar

StartChar: lozenge
Encoding: 487 9674 325
Width: 1104
VWidth: 0
Flags: HW
PickledData: "(dp1
S'org.robofab.postScriptHintData'
p2
(dp3
s."
LayerCount: 2
Fore
SplineSet
376 0 m 257
 529 0 l 257
 980 708 l 257
 754 1411 l 257
 601 1411 l 257
 124 708 l 257
 376 0 l 257
478 143 m 257
 282 708 l 257
 655 1257 l 257
 827 708 l 257
 478 143 l 257
EndSplineSet
EndChar

StartChar: lslash
Encoding: 259 322 326
Width: 708
VWidth: 0
Flags: HW
PickledData: "(dp1
S'org.robofab.postScriptHintData'
p2
(dp3
s."
LayerCount: 2
Fore
SplineSet
41 578 m 257
 627 870 l 257
 645 982 l 257
 60 690 l 257
 41 578 l 257
EndSplineSet
Refer: 317 108 N 1 0 0 1 0 0 2
EndChar

StartChar: m
Encoding: 78 109 327
Width: 1829
VWidth: 0
Flags: HW
PickledData: "(dp1
S'org.robofab.postScriptHintData'
p2
(dp3
s."
AnchorPoint: "top" 1035 1052 basechar 0
LayerCount: 2
Fore
SplineSet
111 0 m 257
 249 0 l 257
 371 765 l 258
 386 865 441 959 677 959 c 256
 821.332323927 959 898.072218831 903.924687462 898.072218831 817.40501591 c 0
 898.072218831 809.211959687 897.384068463 800.736932173 896 792 c 258
 770 0 l 257
 908 0 l 257
 1028 758 l 257
 1040 864 1097 959 1334 959 c 256
 1477.64204545 959 1549.46306818 905.134232955 1549.46306818 820.259479663 c 0
 1549.46306818 811.184820506 1548.64204545 801.755681818 1547 792 c 258
 1421 0 l 257
 1559 0 l 257
 1679 756 l 258
 1683.20848321 782.93429256 1685.80169304 809.698556342 1685.80169304 835.586768936 c 0
 1685.80169304 963.484441231 1622.50823742 1070 1378 1070 c 256
 1233 1070 1131 1024 1014 927 c 257
 979 1005 896 1070 716 1070 c 256
 577 1070 494 1040 399 944 c 257
 416 1052 l 257
 278 1052 l 257
 111 0 l 257
EndSplineSet
EndChar

StartChar: macron
Encoding: 112 175 328
Width: 514
VWidth: 0
Flags: HW
PickledData: "(dp1
S'org.robofab.postScriptHintData'
p2
(dp3
s."
AnchorPoint: "mid" 256 1433 mark 0
AnchorPoint: "top" 196 1052 mark 0
LayerCount: 2
Fore
SplineSet
3 1363 m 257
 487 1363 l 257
 511 1504 l 257
 27 1504 l 257
 3 1363 l 257
EndSplineSet
EndChar

StartChar: minus
Encoding: 477 8722 331
Width: 982
VWidth: 0
Flags: HW
PickledData: "(dp1
S'org.robofab.postScriptHintData'
p2
(dp3
s."
LayerCount: 2
Fore
SplineSet
142 439 m 257
 820 439 l 257
 844 603 l 257
 166 603 l 257
 142 439 l 257
EndSplineSet
EndChar

StartChar: mu
Encoding: 421 956 332
Width: 1211
VWidth: 0
Flags: HW
PickledData: "(dp1
S'org.robofab.postScriptHintData'
p2
(dp3
s."
LayerCount: 2
Fore
SplineSet
988 1052 m 257
 869 304 l 257
 857 222 765 96 530 96 c 256
 386.472856491 96 322.800307758 162.002267111 322.800307758 249.138400939 c 0
 322.800307758 258.532058898 323.540296557 268.171330154 325 278 c 258
 447 1052 l 257
 310 1052 l 257
 70 -471 l 257
 219 -471 l 257
 294 10 l 257
 335 -12 396 -24 481 -24 c 256
 646 -24 763 36 842 132 c 257
 849 0 l 257
 958 0 l 257
 1125 1052 l 257
 988 1052 l 257
EndSplineSet
EndChar

StartChar: multiply
Encoding: 152 215 333
Width: 942
VWidth: 0
Flags: HW
PickledData: "(dp1
S'org.robofab.postScriptHintData'
p2
(dp3
s."
LayerCount: 2
Fore
SplineSet
166 216 m 257
 452 458 l 257
 662 216 l 257
 791 344 l 257
 592 576 l 257
 864 806 l 257
 776 937 l 257
 490 694 l 257
 280 937 l 257
 150 806 l 257
 350 576 l 257
 77 344 l 257
 166 216 l 257
EndSplineSet
EndChar

StartChar: n
Encoding: 79 110 334
Width: 1195
VWidth: 0
Flags: HW
PickledData: "(dp1
S'org.robofab.postScriptHintData'
p2
(dp3
s."
AnchorPoint: "bot" 497 0 basechar 0
AnchorPoint: "top" 768 1052 basechar 0
LayerCount: 2
Fore
SplineSet
111 0 m 257
 249 0 l 257
 371 767 l 258
 387 867 467 961 702 961 c 256
 845.951683883 961 919.411713671 908.541094627 919.411713671 824.401913732 c 0
 919.411713671 815.606233419 918.608939459 806.464349759 917 797 c 258
 791 0 l 257
 929 0 l 257
 1051 770 l 258
 1053.9218188 788.699640335 1055.47771359 807.180732827 1055.47771359 825.230957208 c 0
 1055.47771359 959.013092602 970.008194065 1069.12647431 721.723961527 1069.12647431 c 0
 596.061717589 1069.12647431 501.971597789 1049.01063933 399 944 c 257
 416 1052 l 257
 278 1052 l 257
 111 0 l 257
EndSplineSet
EndChar

StartChar: nine
Encoding: 26 57 339
Width: 1173
VWidth: 0
Flags: HW
PickledData: "(dp1
S'org.robofab.postScriptHintData'
p2
(dp3
s."
LayerCount: 2
Fore
SplineSet
315 0 m 257
 443 0 l 257
 861 562 l 257
 992 743 1060 905 1077 1018 c 256
 1083.09216194 1056.6617969 1085.99994909 1092.20784778 1085.99994909 1124.83755304 c 0
 1085.99994909 1370.72058123 920.88232953 1451 709 1451 c 256
 476 1451 240 1348 187 1016 c 256
 181.268146976 979.386326603 178.47825143 945.194636803 178.47825143 913.359303873 c 0
 178.47825143 673.043326036 337.455305405 567 590 567 c 256
 668 567 740 591 791 615 c 257
 315 0 l 257
587 700 m 256
 437.128474596 700 307.996999171 729.18969997 307.996999171 923.563310718 c 0
 307.996999171 950.965566656 310.563433437 981.65078399 316 1016 c 256
 358 1282 496 1320 687 1320 c 256
 856.160285889 1320 961.010251163 1291.81907299 961.010251163 1116.90947019 c 0
 961.010251163 1086.05558202 957.747674045 1050.63599258 951 1010 c 256
 913 771 772 700 587 700 c 256
EndSplineSet
EndChar

StartChar: notequal
Encoding: 484 8800 341
Width: 677
VWidth: 0
Flags: HW
PickledData: "(dp1
S'org.robofab.postScriptHintData'
p2
(dp3
s."
LayerCount: 2
Fore
SplineSet
49 238 m 257
 181 238 l 257
 680 1241 l 257
 555 1241 l 257
 49 238 l 257
EndSplineSet
Refer: 254 61 N 1 0 0 1 -386 0 2
EndChar

StartChar: numbersign
Encoding: 4 35 343
Width: 1196
VWidth: 0
Flags: HW
PickledData: "(dp1
S'org.robofab.postScriptHintData'
p2
(dp3
s."
LayerCount: 2
Fore
SplineSet
40 0 m 257
 202 0 l 257
 362 473 l 257
 685 473 l 257
 521 0 l 257
 682 0 l 257
 844 473 l 257
 1094 473 l 257
 1111 580 l 257
 879 580 l 257
 994 918 l 257
 1189 918 l 257
 1205 1025 l 257
 1028 1025 l 257
 1166 1427 l 257
 1013 1427 l 257
 873 1025 l 257
 547 1025 l 257
 685 1427 l 257
 532 1427 l 257
 393 1025 l 257
 148 1025 l 257
 132 918 l 257
 356 918 l 257
 241 580 l 257
 55 580 l 257
 37 473 l 257
 204 473 l 257
 40 0 l 257
399 580 m 257
 513 918 l 257
 838 918 l 257
 723 580 l 257
 399 580 l 257
EndSplineSet
EndChar

StartChar: o
Encoding: 80 111 344
Width: 1151
VWidth: 0
Flags: HW
PickledData: "(dp1
S'org.robofab.postScriptHintData'
p2
(dp3
s."
AnchorPoint: "bot" 502 0 basechar 0
AnchorPoint: "ogonek" 529 0 basechar 0
AnchorPoint: "top" 655 1052 basechar 0
LayerCount: 2
Fore
SplineSet
509 96 m 256
 358.336920035 96 251.029833112 137.688454847 251.029833112 255.324879122 c 0
 251.029833112 266.519021764 252.001520237 278.400888454 254 291 c 258
 327 757 l 258
 350 901 473 953 643 953 c 256
 790.28479741 953 899.90991658 909.482149589 899.90991658 791.822856882 c 0
 899.90991658 780.86638979 898.959314656 769.267013496 897 757 c 258
 824 291 l 258
 801 146 674 96 509 96 c 256
490 -21 m 257
 786 -21 935 123 964 309 c 258
 1033 738 l 258
 1036.80756676 762.027059224 1038.89128517 785.468010007 1038.89128517 808.062568977 c 0
 1038.89128517 957.557496821 947.672516154 1070 661 1070 c 256
 328 1070 216 921 187 738 c 258
 119 309 l 258
 115.516156918 287.516300997 113.704545131 266.572031443 113.704545131 246.331629001 c 0
 113.704545131 92.2782819662 218.651327535 -21 490 -21 c 257
EndSplineSet
Substitution2: "Single Substitution lookup 14 subtable" ordmasculine
EndChar

StartChar: oe
Encoding: 276 339 351
Width: 1706
VWidth: 0
Flags: HW
PickledData: "(dp1
S'org.robofab.postScriptHintData'
p2
(dp3
s."
LayerCount: 2
Fore
SplineSet
474 -18 m 256
 642 -18 737 41 808 141 c 257
 849 45 942 -18 1098 -18 c 256
 1388 -18 1465 90 1529 315 c 257
 1409 315 l 257
 1360 124 1304 94 1112 94 c 256
 968.154975919 94 905.17916959 154.83739317 905.17916959 271.399776248 c 0
 905.17916959 290.163019471 906.81099134 310.370202135 910 332 c 258
 937 502 l 257
 1560 502 l 257
 1602 766 l 258
 1605.28888357 786.369859517 1606.92317504 805.839260751 1606.92317504 824.369990767 c 0
 1606.92317504 980.504194507 1490.90111749 1070 1271 1070 c 256
 1117 1070 1010 1032 936 934 c 257
 886 1033 787 1070 646 1070 c 256
 391 1070 230 933 200 746 c 258
 131 312 l 258
 127.077349925 286.840933999 124.947736703 262.450312364 124.947736703 239.080567371 c 0
 124.947736703 89.6786932352 211.984930098 -18 474 -18 c 256
491 94 m 256
 347.130062258 94 262.350952993 137.918859003 262.350952993 250.017731087 c 0
 262.350952993 263.364929869 263.552848249 277.67870208 266 293 c 258
 340 764 l 257
 364 908 475 957 629 957 c 256
 769.263440096 957 845.691739877 911.290887181 845.691739877 806.579882109 c 0
 845.691739877 793.33899045 844.469647582 779.154655614 842 764 c 258
 768 293 l 258
 745 151 645 94 491 94 c 256
955 620 m 257
 978 760 l 258
 1001 901 1075 957 1249 957 c 256
 1396.83020074 957 1471.78577537 927.223271057 1471.78577537 828.131790865 c 0
 1471.78577537 815.282158147 1470.52536278 801.266965881 1468 786 c 258
 1442 620 l 257
 955 620 l 257
EndSplineSet
EndChar

StartChar: ogonek
Encoding: 409 731 352
Width: 529
VWidth: 0
Flags: HW
PickledData: "(dp1
S'org.robofab.postScriptHintData'
p2
(dp3
s."
AnchorPoint: "ogonek" 391 0 mark 0
LayerCount: 2
Fore
SplineSet
370 -457 m 257
 373 -386 l 257
 250.627352425 -386 226.091795363 -330.093091135 226.091795363 -278.549423132 c 0
 226.091795363 -266.912712565 227.342358855 -255.498393921 229 -245 c 256
 243 -162 321 -44 412 11 c 257
 381 11 l 257
 209 -114 148 -205 137 -273 c 256
 136.108675917 -279.401327502 135.644127127 -285.966799346 135.644127127 -292.628316831 c 0
 135.644127127 -368.177853412 195.395597789 -456.081029462 370 -457 c 257
EndSplineSet
EndChar

StartChar: one
Encoding: 18 49 357
Width: 1173
VWidth: 0
Flags: HW
PickledData: "(dp1
S'org.robofab.postScriptHintData'
p2
(dp3
s."
LayerCount: 2
Fore
SplineSet
66 0 m 257
 1006 0 l 257
 1026 123 l 257
 655 123 l 257
 862 1428 l 257
 723 1428 l 257
 305 1391 l 257
 297 1267 l 257
 698 1299 l 257
 512 123 l 257
 87 123 l 257
 66 0 l 257
EndSplineSet
Substitution2: "'sups' Superscript lookup 10 subtable" onesuperior
EndChar

StartChar: onehalf
Encoding: 126 189 358
Width: 1728
VWidth: 0
Flags: HW
PickledData: "(dp1
S'org.robofab.postScriptHintData'
p2
(dp3
s."
LayerCount: 2
Fore
SplineSet
1041 4 m 257
 1472 4 l 257
 1482 66 l 257
 1151 66 l 257
 1391 311 l 257
 1463 389 1525 425 1545 540 c 256
 1546.54604018 550.532398732 1547.30778278 560.943418076 1547.30778278 571.15817551 c 0
 1547.30778278 666.656142079 1480.72830606 745 1366 745 c 256
 1266 745 1130 688 1107 544 c 257
 1164 544 l 257
 1183 670 1243 677 1358 677 c 256
 1446.9023589 677 1488.7050423 643.574423839 1488.7050423 572.750527443 c 0
 1488.7050423 562.316316383 1487.79771545 551.070375133 1486 539 c 256
 1473 462 1441 441 1345 350 c 257
 1059 55 l 257
 1041 4 l 257
189 793 m 257
 772 793 l 257
 784 867 l 257
 562 867 l 257
 666 1522 l 257
 582 1522 l 257
 313 1501 l 257
 308 1421 l 257
 571 1440 l 257
 479 867 l 257
 202 867 l 257
 189 793 l 257
453 0 m 257
 560 0 l 257
 1483 1411 l 257
 1386 1411 l 257
 453 0 l 257
EndSplineSet
Ligature2: "'frac' Diagonal Fractions lookup 11 subtable" one slash two
EndChar

StartChar: onequarter
Encoding: 125 188 359
Width: 1815
VWidth: 0
Flags: HW
PickledData: "(dp1
S'org.robofab.postScriptHintData'
p2
(dp3
s."
LayerCount: 2
Fore
SplineSet
1342 0 m 257
 1428 0 l 257
 1461 205 l 257
 1590 205 l 257
 1597 253 l 257
 1467 253 l 257
 1504 484 l 257
 1418 484 l 257
 1382 253 l 257
 1110 253 l 257
 1589 783 l 257
 1478 783 l 257
 989 257 l 257
 981 205 l 257
 1375 205 l 257
 1342 0 l 257
189 793 m 257
 772 793 l 257
 784 867 l 257
 562 867 l 257
 666 1522 l 257
 582 1522 l 257
 314 1501 l 257
 309 1421 l 257
 571 1440 l 257
 479 867 l 257
 202 867 l 257
 189 793 l 257
471 0 m 257
 578 0 l 257
 1501 1411 l 257
 1404 1411 l 257
 471 0 l 257
EndSplineSet
Ligature2: "'frac' Diagonal Fractions lookup 11 subtable" one slash four
EndChar

StartChar: onesuperior
Encoding: 122 185 360
Width: 1004
VWidth: 0
Flags: HW
PickledData: "(dp1
S'org.robofab.postScriptHintData'
p2
(dp3
s."
LayerCount: 2
Fore
SplineSet
141 736 m 257
 721 736 l 257
 734 815 l 257
 514 815 l 257
 627 1538 l 257
 537 1538 l 257
 274 1514 l 257
 271 1433 l 257
 522 1454 l 257
 421 815 l 257
 153 815 l 257
 141 736 l 257
EndSplineSet
EndChar

StartChar: oslash
Encoding: 185 248 362
Width: 1170
VWidth: 0
Flags: HW
PickledData: "(dp1
S'org.robofab.postScriptHintData'
p2
(dp3
s."
AnchorPoint: "top" 667 1052 basechar 0
LayerCount: 2
Fore
SplineSet
244 -233 m 257
 1014 1196 l 257
 920 1233 l 257
 146 -196 l 257
 244 -233 l 257
EndSplineSet
Refer: 344 111 N 1 0 0 1 0 0 2
EndChar

StartChar: p
Encoding: 81 112 365
Width: 1191
VWidth: 0
Flags: HW
PickledData: "(dp1
S'org.robofab.postScriptHintData'
p2
(dp3
s."
AnchorPoint: "top" 731 1052 basechar 0
LayerCount: 2
Fore
SplineSet
79 -407 m 257
 217 -407 l 257
 289 44 l 257
 335 16 416 -21 555 -21 c 256
 815 -21 996 124 1032 355 c 258
 1089 716 l 258
 1093.11549486 741.316528967 1095.22464313 765.824298071 1095.22464313 789.331281519 c 0
 1095.22464313 954.314499318 991.330073631 1070 748 1070 c 256
 625 1070 494 1014 439 966 c 257
 434 1052 l 257
 311 1052 l 257
 79 -407 l 257
568 96 m 256
 457 96 369 120 307 159 c 257
 410 814 l 257
 422 837 550 953 710 953 c 256
 850.336631626 953 958.70324887 888.218655066 958.70324887 770.231208054 c 0
 958.70324887 759.584533072 957.820876498 748.504628784 956 737 c 258
 890 326 l 258
 868 184 731 96 568 96 c 256
EndSplineSet
EndChar

StartChar: paragraph
Encoding: 119 182 366
Width: 1267
VWidth: 0
Flags: HW
PickledData: "(dp1
S'org.robofab.postScriptHintData'
p2
(dp3
s."
LayerCount: 2
Fore
SplineSet
450 -336 m 257
 587 -336 l 257
 852 1340 l 257
 936 1340 l 257
 671 -336 l 257
 785 -336 l 257
 1064 1428 l 257
 777 1428 l 258
 583 1428 340 1362 306 1146 c 256
 304.58726213 1136.8454586 303.905795746 1127.88571005 303.905795746 1119.12688975 c 0
 303.905795746 972.888443913 493.871993821 882.660942911 642 877 c 257
 450 -336 l 257
EndSplineSet
EndChar

StartChar: parenleft
Encoding: 9 40 367
Width: 661
VWidth: 0
Flags: HW
PickledData: "(dp1
S'org.robofab.postScriptHintData'
p2
(dp3
s."
LayerCount: 2
Fore
SplineSet
426 -145 m 257
 444 -34 l 257
 254.420858279 -34 205.584300945 38.3016767672 205.584300945 148.804151486 c 0
 205.584300945 224.82426353 228.697392715 318.923834834 245 420 c 258
 334 982 l 258
 373 1230 357 1450 679 1450 c 257
 697 1562 l 257
 207 1562 231 1219 188 943 c 257
 109 452 l 258
 92.6295963772 344.194902972 61.7516969517 227.462116219 61.7516969517 126.053863559 c 0
 61.7516969517 -26.5168604065 131.646287199 -144.399278137 426 -145 c 257
EndSplineSet
EndChar

StartChar: parenright
Encoding: 10 41 368
Width: 661
VWidth: 0
Flags: HW
PickledData: "(dp1
S'org.robofab.postScriptHintData'
p2
(dp3
s."
LayerCount: 2
Fore
SplineSet
-46 -145 m 257
 444 -144 420 199 464 475 c 258
 542 966 l 258
 558.756842342 1073.32358548 589.680616153 1189.87955326 589.680616153 1291.21730964 c 0
 589.680616153 1443.87643889 519.503506007 1562 225 1562 c 257
 207 1452 l 257
 396.579141721 1452 445.415699055 1379.34734422 445.415699055 1268.76670804 c 0
 445.415699055 1192.69282486 422.302607285 1098.66859998 406 998 c 258
 317 437 l 258
 278 187 294 -33 -28 -33 c 257
 -46 -145 l 257
EndSplineSet
EndChar

StartChar: partialdiff
Encoding: 472 8706 369
Width: 1194
VWidth: 0
Flags: HW
PickledData: "(dp1
S'org.robofab.postScriptHintData'
p2
(dp3
s."
LayerCount: 2
Fore
SplineSet
933.381345722 1088.0650528 m 0
 933.381345722 1040.39983642 928.972680471 973.712577507 915 929 c 257
 911.375646621 929.048110886 907.760037503 929.072046461 904.153243277 929.072046461 c 0
 457.949872872 929.072046461 146.65520532 562.74680686 104 284 c 256
 100.026351169 260.432151762 98.0240910759 237.615308758 98.0240910759 215.786151381 c 0
 98.0240910759 78.3044106722 177.445318081 -20 344 -20 c 256
 672 -20 968 384 1053 920 c 256
 1062.32150318 979.036186804 1066.71602424 1033.24512797 1066.71602424 1082.81276228 c 0
 1066.71602424 1384.20395952 904.244859698 1514 699 1514 c 256
 601 1514 499 1488 378 1431 c 257
 388 1394 l 257
 448 1417 530 1433 602 1433 c 256
 790.550235068 1433 933.381345722 1325.56005763 933.381345722 1088.0650528 c 0
374 79 m 256
 292.247346979 79 259.208223666 134.672605381 259.208223666 209.44420122 c 0
 259.208223666 224.304147862 260.513161177 239.918442276 263 256 c 256
 297 474 539 846 897 848 c 257
 833 550 649 79 374 79 c 256
EndSplineSet
EndChar

StartChar: percent
Encoding: 6 37 371
Width: 2008
VWidth: 0
Flags: HW
PickledData: "(dp1
S'org.robofab.postScriptHintData'
p2
(dp3
s."
LayerCount: 2
Fore
SplineSet
464 794 m 256
 359.285523082 794 329.149519396 850.325000763 329.149519396 936.234194341 c 0
 329.149519396 969.284990207 333.609882546 1006.71447692 340 1047 c 258
 356 1145 l 258
 378 1285 406 1382 556 1382 c 256
 665.807356748 1382 696.291511031 1330.70432907 696.291511031 1248.11007781 c 0
 696.291511031 1217.12603788 692.001577162 1181.73745259 686 1143 c 258
 670 1047 l 257
 647 902 608 794 464 794 c 256
448 686 m 256
 678 686 770 836 807 1065 c 257
 815 1119 l 258
 821.737188669 1163.85042742 825.473098477 1205.1437836 825.473098477 1242.58764263 c 0
 825.473098477 1399.66632564 759.727045892 1489 574 1489 c 256
 343 1489 255 1351 218 1118 c 257
 210 1065 l 258
 203.098347304 1020.04066244 199.229640874 978.075387219 199.229640874 939.671571147 c 0
 199.229640874 783.320069639 263.353717714 686 448 686 c 256
1448 89 m 256
 1344.24957972 89 1313.69288575 145.063279731 1313.69288575 230.261187183 c 0
 1313.69288575 263.313390332 1318.29173671 300.750420281 1325 341 c 258
 1341 440 l 257
 1362 579 1391 676 1541 676 c 256
 1649.61127482 676 1680.10063561 625.815724104 1680.10063561 545.170026383 c 0
 1680.10063561 513.69568522 1675.45656079 477.581524839 1669 438 c 258
 1655 341 l 257
 1631 197 1593 89 1448 89 c 256
1430 -19 m 256
 1660 -19 1755 131 1791 360 c 257
 1800 414 l 258
 1806.63041654 458.139630087 1810.28215459 498.834041684 1810.28215459 535.80449295 c 0
 1810.28215459 693.990075571 1743.42869133 784 1557 784 c 256
 1326 784 1240 646 1203 413 c 257
 1194 360 l 258
 1186.72807903 313.9445005 1182.63880088 271.030840712 1182.63880088 231.868938945 c 0
 1182.63880088 77.1579330287 1246.45949511 -19 1430 -19 c 256
536 0 m 257
 675 0 l 257
 1442 1446 l 257
 1308 1446 l 257
 536 0 l 257
EndSplineSet
EndChar

StartChar: period
Encoding: 15 46 372
Width: 624
VWidth: 0
Flags: HW
PickledData: "(dp1
S'org.robofab.postScriptHintData'
p2
(dp3
s."
LayerCount: 2
Fore
SplineSet
182 0 m 257
 413 0 l 257
 447 217 l 257
 216 217 l 257
 182 0 l 257
EndSplineSet
EndChar

StartChar: periodcentered
Encoding: 120 183 373
Width: 867
VWidth: 0
Flags: HW
PickledData: "(dp1
S'org.robofab.postScriptHintData'
p2
(dp3
s."
AnchorPoint: "mid" 164 601 mark 0
LayerCount: 2
Fore
SplineSet
514 527 m 257
 693 527 l 257
 721 710 l 257
 542 710 l 257
 514 527 l 257
EndSplineSet
EndChar

StartChar: perthousand
Encoding: 462 8240 374
Width: 2956
VWidth: 0
Flags: HW
PickledData: "(dp1
S'org.robofab.postScriptHintData'
p2
(dp3
s."
LayerCount: 2
Fore
SplineSet
560 766 m 256
 455.952646136 766 426.562738935 822.384645032 426.562738935 907.993411418 c 0
 426.562738935 940.865912473 430.896123507 978.047353864 437 1018 c 258
 452 1117 l 257
 475 1256 504 1353 654 1353 c 256
 762.611274818 1353 793.100635612 1302.8157241 793.100635612 1222.17002638 c 0
 793.100635612 1190.69568522 788.456560789 1154.58152484 782 1115 c 258
 767 1018 l 258
 745 874 705 766 560 766 c 256
544 658 m 256
 774 658 869 808 905 1037 c 257
 914 1091 l 258
 920.630416537 1135.13963009 924.282154587 1175.83404168 924.282154587 1212.80449295 c 0
 924.282154587 1370.99007557 857.42869133 1461 671 1461 c 256
 440 1461 353 1323 316 1090 c 257
 308 1037 l 258
 300.728079026 990.9445005 296.638800879 948.030840712 296.638800879 908.868938945 c 0
 296.638800879 754.157933029 360.45949511 658 544 658 c 256
1550 89 m 256
 1445.44197997 89 1415.74882763 145.93947684 1415.74882763 232.256027928 c 0
 1415.74882763 264.816855664 1419.97414195 301.558020034 1426 341 c 258
 1442 440 l 258
 1465 579 1494 676 1644 676 c 256
 1752.75980387 676 1782.66510002 625.678373362 1782.66510002 544.838999576 c 0
 1782.66510002 513.442556386 1778.15420076 477.442832147 1772 438 c 258
 1755 341 l 257
 1733 197 1694 89 1550 89 c 256
1533 -19 m 256
 1763 -19 1857 131 1893 360 c 257
 1901 414 l 258
 1907.73718867 458.850427422 1911.47309848 500.143783603 1911.47309848 537.587642631 c 0
 1911.47309848 694.666325635 1845.72704589 784 1660 784 c 256
 1429 784 1342 646 1305 413 c 257
 1297 360 l 258
 1289.72807903 313.9445005 1285.63880088 271.030840712 1285.63880088 231.868938945 c 0
 1285.63880088 77.1579330287 1349.45949511 -19 1533 -19 c 256
2344 89 m 256
 2239.44197997 89 2209.74882763 145.93947684 2209.74882763 232.256027928 c 0
 2209.74882763 264.816855664 2213.97414195 301.558020034 2220 341 c 258
 2236 440 l 258
 2259 579 2288 676 2438 676 c 256
 2546.75980387 676 2576.66510002 625.678373362 2576.66510002 544.838999576 c 0
 2576.66510002 513.442556386 2572.15420076 477.442832147 2566 438 c 258
 2549 341 l 257
 2527 197 2488 89 2344 89 c 256
2327 -19 m 256
 2557 -19 2651 131 2687 360 c 257
 2695 414 l 258
 2701.73718867 458.850427422 2705.47309848 500.143783603 2705.47309848 537.587642631 c 0
 2705.47309848 694.666325635 2639.72704589 784 2454 784 c 256
 2223 784 2136 646 2099 413 c 257
 2091 360 l 258
 2083.72807903 313.9445005 2079.63880088 271.030840712 2079.63880088 231.868938945 c 0
 2079.63880088 77.1579330287 2143.45949511 -19 2327 -19 c 256
638 0 m 257
 778 0 l 257
 1545 1446 l 257
 1410 1446 l 257
 638 0 l 257
EndSplineSet
EndChar

StartChar: pi
Encoding: 422 960 375
Width: 1134
VWidth: 0
Flags: HW
PickledData: "(dp1
S'org.robofab.postScriptHintData'
p2
(dp3
s."
LayerCount: 2
Fore
SplineSet
92 919 m 257
 87.7642648403 916.246772146 85.7936380389 914.614885064 85.7936380389 913.890602139 c 0
 85.7936380389 913.58658106 86.1408504853 913.442474308 86.8134960515 913.442474308 c 0
 99.0775861962 913.442474308 219.52488294 961.347649149 316.150015608 961.347649149 c 0
 320.827493064 961.347649149 325.449146074 961.235388996 330 961 c 257
 177 0 l 257
 327 0 l 257
 479 960 l 257
 810 960 l 257
 697 249 l 258
 691.414302242 213.021535029 688.581547376 181.604318575 688.581547376 154.207402817 c 0
 688.581547376 14.8399900834 761.885622898 -20.4928556845 919 -23 c 257
 989 105 l 257
 886.992499812 129.935166713 848.931192798 146.877059278 848.931192798 227.009114635 c 0
 848.931192798 252.926393428 852.912722263 285.453889125 860 327 c 258
 959 960 l 257
 1141 960 l 257
 1156 1052 l 257
 292 1052 l 258
 181.088757396 1052 105.477399251 1001.87416407 100.758235099 1001.87416407 c 0
 99.8609292392 1001.87416407 101.526627219 1003.68639053 106 1008 c 257
 92 919 l 257
EndSplineSet
EndChar

StartChar: plus
Encoding: 12 43 376
Width: 1059
VWidth: 0
Flags: HW
PickledData: "(dp1
S'org.robofab.postScriptHintData'
p2
(dp3
s."
LayerCount: 2
Fore
SplineSet
395 156 m 257
 538 156 l 257
 591 498 l 257
 868 498 l 257
 891 638 l 257
 614 638 l 257
 666 968 l 257
 523 968 l 257
 471 638 l 257
 192 638 l 257
 170 498 l 257
 448 498 l 257
 395 156 l 257
EndSplineSet
EndChar

StartChar: plusminus
Encoding: 114 177 377
Width: 1051
VWidth: 0
Flags: HW
PickledData: "(dp1
S'org.robofab.postScriptHintData'
p2
(dp3
s."
LayerCount: 2
Fore
SplineSet
454 339 m 257
 548 339 l 257
 594 623 l 257
 844 623 l 257
 857 709 l 257
 607 709 l 257
 650 976 l 257
 556 976 l 257
 513 709 l 257
 263 709 l 257
 250 623 l 257
 500 623 l 257
 454 339 l 257
151 0 m 257
 745 0 l 257
 759 93 l 257
 165 93 l 257
 151 0 l 257
EndSplineSet
EndChar

StartChar: product
Encoding: 475 8719 378
Width: 1802
VWidth: 0
Flags: HW
PickledData: "(dp1
S'org.robofab.postScriptHintData'
p2
(dp3
s."
LayerCount: 2
Fore
SplineSet
601 319 m 257
 732 319 l 257
 785 652 l 257
 963 652 l 258
 1183 652 1256 760 1277 894 c 257
 1281.04373182 912.870748482 1283.53117727 938.640954222 1283.53117727 958.575924588 c 0
 1283.53117727 1095.88749552 1195.8108372 1153 1055 1153 c 258
 733 1153 l 257
 601 319 l 257
799 742 m 257
 850 1062 l 257
 1045 1062 l 258
 1132.94197836 1062 1151.45534822 1005.34625547 1151.45534822 952.060795684 c 0
 1151.45534822 933.848156701 1149.29256097 916.02901082 1147 901 c 258
 1143 877 l 258
 1132 814 1099 742 985 742 c 258
 799 742 l 257
802 82 m 256
 476.714709399 82 264.829777148 301.613370044 264.829777148 608.813688599 c 0
 264.829777148 645.375966094 267.831172678 683.178931509 274 722 c 256
 332 1086 640 1361 1004 1361 c 256
 1330.69165649 1361 1540.26326276 1141.89786522 1540.26326276 835.970437395 c 0
 1540.26326276 799.160496944 1537.22919105 761.093543816 1531 722 c 256
 1473 357 1168 82 802 82 c 256
785 -14 m 256
 1201 -14 1571 303 1637 722 c 256
 1643.67289479 764.160562537 1646.91115956 805.298913759 1646.91115956 845.190783885 c 0
 1646.91115956 1199.8598219 1390.94054193 1456 1017 1456 c 257
 604 1456 231 1139 165 722 c 256
 158.380349163 679.975246958 155.170915147 638.976576853 155.170915147 599.220915831 c 0
 155.170915147 242.600137682 413.422966603 -14 785 -14 c 256
EndSplineSet
EndChar

StartChar: q
Encoding: 82 113 379
Width: 1194
VWidth: 0
Flags: HW
PickledData: "(dp1
S'org.robofab.postScriptHintData'
p2
(dp3
s."
LayerCount: 2
Fore
SplineSet
742 -407 m 257
 880 -407 l 257
 1112 1052 l 257
 933 1052 l 257
 928 957 l 257
 925 1006 793 1070 688 1070 c 256
 403 1070 257 930 223 715 c 258
 160 312 l 258
 156.796459127 292.046516846 155.234946114 272.955936087 155.234946114 254.737459422 c 0
 155.234946114 73.9115946887 309.065494289 -21 538 -21 c 256
 606 -21 741 -2 815 55 c 257
 742 -407 l 257
546 96 m 256
 408.294830953 96 288.526555975 125.894823448 288.526555975 240.152418273 c 0
 288.526555975 249.524036111 289.332306839 259.463211393 291 270 c 258
 365 743 l 258
 388 886 519 953 687 953 c 256
 867.327647472 953 938.222019948 886.744479764 938.222019948 822.961148787 c 0
 938.222019948 812.819508407 936.42970724 802.740368562 933 793 c 257
 838 190 l 257
 818 160 701 96 546 96 c 256
EndSplineSet
EndChar

StartChar: question
Encoding: 32 63 380
Width: 1238
VWidth: 0
Flags: HW
PickledData: "(dp1
S'org.robofab.postScriptHintData'
p2
(dp3
s."
LayerCount: 2
Fore
SplineSet
432 431 m 257
 551 431 l 257
 816 691 l 257
 982 863 1122 972 1149 1142 c 256
 1150.97219896 1154.62207337 1152.02062535 1167.73034283 1152.02062535 1181.10618479 c 0
 1152.02062535 1303.37428346 1064.41701554 1448 794 1448 c 256
 506.78270447 1448 311.567297525 1410.97108267 265 1085 c 257
 416 1085 l 257
 422 1119 l 257
 443 1247 551 1322 775 1322 c 256
 926.52722246 1322 985.087852458 1272.51778143 985.087852458 1178.09752802 c 0
 985.087852458 1163.4710763 983.682603147 1147.76626967 981 1131 c 256
 964 1016 881 938 785 828 c 257
 432 431 l 257
332 0 m 257
 509 0 l 257
 537 183 l 257
 360 183 l 257
 332 0 l 257
EndSplineSet
EndChar

StartChar: quotedbl
Encoding: 3 34 382
Width: 810
VWidth: 0
Flags: HW
PickledData: "(dp1
S'org.robofab.postScriptHintData'
p2
(dp3
s."
LayerCount: 2
Fore
SplineSet
143 965 m 257
 251 965 l 257
 382 1500 l 257
 206 1500 l 257
 143 965 l 257
464 965 m 257
 572 965 l 257
 690 1500 l 257
 514 1500 l 257
 464 965 l 257
EndSplineSet
EndChar

StartChar: quotedblbase
Encoding: 457 8222 383
Width: 1066
VWidth: 0
Flags: HW
PickledData: "(dp1
S'org.robofab.postScriptHintData'
p2
(dp3
s."
LayerCount: 2
Fore
SplineSet
510 -307 m 257
 573 -255 693 -137 723 48 c 258
 748 207 l 257
 530 207 l 257
 497 0 l 257
 623 0 l 257
 603 -128 503 -211 451 -265 c 257
 510 -307 l 257
150 -307 m 257
 213 -255 334 -137 363 48 c 258
 388 207 l 257
 170 207 l 257
 137 0 l 257
 264 0 l 257
 243 -128 143 -211 91 -265 c 257
 150 -307 l 257
EndSplineSet
EndChar

StartChar: quotedblleft
Encoding: 455 8220 384
Width: 1104
VWidth: 0
Flags: HW
PickledData: "(dp1
S'org.robofab.postScriptHintData'
p2
(dp3
s."
LayerCount: 2
Fore
SplineSet
556 1440 m 257
 493 1387 372 1269 343 1084 c 258
 318 925 l 257
 536 925 l 257
 569 1132 l 257
 442 1132 l 257
 463 1261 563 1344 615 1397 c 257
 556 1440 l 257
930 1440 m 257
 867 1387 746 1269 717 1084 c 258
 692 925 l 257
 910 925 l 257
 943 1132 l 257
 816 1132 l 257
 836 1261 937 1344 989 1397 c 257
 930 1440 l 257
EndSplineSet
EndChar

StartChar: quotedblright
Encoding: 456 8221 385
Width: 1080
VWidth: 0
Flags: HW
PickledData: "(dp1
S'org.robofab.postScriptHintData'
p2
(dp3
s."
LayerCount: 2
Fore
SplineSet
150 925 m 257
 213 977 334 1095 363 1280 c 258
 388 1439 l 257
 170 1439 l 257
 137 1232 l 257
 264 1232 l 257
 243 1104 143 1021 91 967 c 257
 150 925 l 257
523 925 m 257
 586 977 707 1095 737 1280 c 257
 761 1439 l 257
 543 1439 l 257
 511 1232 l 257
 637 1232 l 257
 617 1104 516 1021 464 967 c 257
 523 925 l 257
EndSplineSet
EndChar

StartChar: quoteleft
Encoding: 452 8216 386
Width: 706
VWidth: 0
Flags: HW
PickledData: "(dp1
S'org.robofab.postScriptHintData'
p2
(dp3
s."
LayerCount: 2
Fore
SplineSet
532 1447 m 257
 469 1394 348 1276 319 1091 c 258
 294 932 l 257
 512 932 l 257
 545 1140 l 257
 418 1140 l 257
 439 1268 539 1351 591 1404 c 257
 532 1447 l 257
EndSplineSet
EndChar

StartChar: quoteright
Encoding: 453 8217 387
Width: 730
VWidth: 0
Flags: HW
PickledData: "(dp1
S'org.robofab.postScriptHintData'
p2
(dp3
s."
LayerCount: 2
Fore
SplineSet
174 932 m 257
 237 985 358 1102 387 1287 c 258
 412 1446 l 257
 194 1446 l 257
 161 1239 l 257
 288 1239 l 257
 267 1111 167 1028 115 975 c 257
 174 932 l 257
EndSplineSet
EndChar

StartChar: quotesinglbase
Encoding: 454 8218 388
Width: 706
VWidth: 0
Flags: HW
PickledData: "(dp1
S'org.robofab.postScriptHintData'
p2
(dp3
s."
LayerCount: 2
Fore
SplineSet
150 -307 m 257
 213 -255 334 -137 363 48 c 258
 388 207 l 257
 170 207 l 257
 137 0 l 257
 264 0 l 257
 243 -128 143 -211 91 -265 c 257
 150 -307 l 257
EndSplineSet
EndChar

StartChar: quotesingle
Encoding: 8 39 389
Width: 972
VWidth: 0
Flags: HW
PickledData: "(dp1
S'org.robofab.postScriptHintData'
p2
(dp3
s."
LayerCount: 2
Fore
SplineSet
112 965 m 257
 219 965 l 257
 351 1500 l 257
 175 1500 l 257
 112 965 l 257
EndSplineSet
EndChar

StartChar: r
Encoding: 83 114 390
Width: 764
VWidth: 0
Flags: HW
PickledData: "(dp1
S'org.robofab.postScriptHintData'
p2
(dp3
s."
AnchorPoint: "bot" 193 0 basechar 0
AnchorPoint: "top" 520 1052 basechar 0
LayerCount: 2
Fore
SplineSet
117 0 m 257
 255 0 l 257
 369 723 l 257
 375.876174644 838.912658284 547.75610424 947.105842653 750.042931388 947.105842653 c 0
 753.685689125 947.105842653 757.338307329 947.070757346 761 947 c 257
 785 1066 l 257
 614 1060 468 1016 391 856 c 257
 422 1052 l 257
 284 1052 l 257
 117 0 l 257
EndSplineSet
EndChar

StartChar: radical
Encoding: 480 8730 392
Width: 1220
VWidth: 0
Flags: HW
PickledData: "(dp1
S'org.robofab.postScriptHintData'
p2
(dp3
s."
LayerCount: 2
Fore
SplineSet
102 400 m 257
 221 400 l 257
 340 0 l 257
 475 0 l 257
 1340 1506 l 257
 1239 1506 l 257
 437 117 l 257
 332 511 l 257
 119 511 l 257
 102 400 l 257
EndSplineSet
EndChar

StartChar: registered
Encoding: 111 174 396
Width: 1789
VWidth: 0
Flags: HW
PickledData: "(dp1
S'org.robofab.postScriptHintData'
p2
(dp3
s."
LayerCount: 2
Fore
SplineSet
1103 666 m 257
 1211.81514475 694.337277278 1297.53117727 793.122959252 1297.53117727 958.575924588 c 0
 1297.53117727 1095.88749552 1209.8108372 1153 1069 1153 c 258
 666 1153 l 257
 534 319 l 257
 665 319 l 257
 718 652 l 257
 977 652 l 257
 1104 319 l 257
 1232 319 l 257
 1103 666 l 257
732 742 m 257
 783 1062 l 257
 1059 1062 l 258
 1146.94197836 1062 1165.45534822 1005.34625547 1165.45534822 952.060795684 c 0
 1165.45534822 933.848156701 1163.29256097 916.02901082 1161 901 c 258
 1157 877 l 258
 1146 814 1113 742 999 742 c 258
 732 742 l 257
795 82 m 256
 469.714709399 82 257.829777148 301.613370044 257.829777148 608.813688599 c 0
 257.829777148 645.375966094 260.831172678 683.178931509 267 722 c 256
 325 1086 633 1361 997 1361 c 256
 1323.69165649 1361 1533.26326276 1141.89786522 1533.26326276 835.970437395 c 0
 1533.26326276 799.160496944 1530.22919105 761.093543816 1524 722 c 256
 1466 357 1161 82 795 82 c 256
778 -14 m 256
 1194 -14 1564 303 1630 722 c 256
 1636.67289479 764.160562537 1639.91115956 805.298913759 1639.91115956 845.190783885 c 0
 1639.91115956 1199.8598219 1383.94054193 1456 1010 1456 c 257
 597 1456 224 1139 158 722 c 256
 151.380349163 679.975246958 148.170915147 638.976576853 148.170915147 599.220915831 c 0
 148.170915147 242.600137682 406.422966603 -14 778 -14 c 256
EndSplineSet
EndChar

StartChar: ring
Encoding: 408 730 397
Width: 464
VWidth: 0
Flags: HW
PickledData: "(dp1
S'org.robofab.postScriptHintData'
p2
(dp3
s."
AnchorPoint: "top" 190 1052 mark 0
LayerCount: 2
Fore
SplineSet
338.152564631 1341.31879799 m 0
 338.152564631 1246.62469569 270.594305485 1210 215 1210 c 256
 169.649601489 1210 125.880639846 1230.55867927 125.880639846 1292.76980019 c 0
 125.880639846 1388.35313967 195.309292161 1424 249 1424 c 256
 295.151711672 1424 338.152564631 1402.73170368 338.152564631 1341.31879799 c 0
256 1475 m 256
 176.241604016 1475 57.6947471059 1421.71339701 57.6947471059 1288.6533492 c 0
 57.6947471059 1195.01766483 139.517404948 1160 208 1160 c 256
 287.830660449 1160 406.305252894 1212.22801273 406.305252894 1345.36799256 c 0
 406.305252894 1439.14858125 324.482595052 1475 256 1475 c 256
EndSplineSet
EndChar

StartChar: s
Encoding: 84 115 399
Width: 942
VWidth: 0
Flags: HW
PickledData: "(dp1
S'org.robofab.postScriptHintData'
p2
(dp3
sS'com.typemytype.robofont.layerData'
p4
(dp5
s."
AnchorPoint: "bot" 420 0 basechar 0
AnchorPoint: "top" 571 1052 basechar 0
LayerCount: 2
Fore
SplineSet
426 -23 m 256
 696 -23 772 143 791 271 c 256
 797.334845587 312.303193228 801.486604562 346.28662546 801.486604562 375.26063947 c 0
 801.486604562 460.630430735 765.443412949 502.511324408 643 560 c 258
 395 675 l 257
 332.805292284 700.655316933 311.105611404 717.244583082 311.105611404 759.539188463 c 0
 311.105611404 771.647418223 312.88407385 785.862406177 316 803 c 256
 333 915 373 953 574 953 c 256
 655 953 776 923 833 903 c 257
 884 1032 l 257
 827 1049 708 1072 549 1072 c 256
 253 1072 213 943 188 786 c 256
 185.475604713 768.609721354 184.170652132 752.812585599 184.170652132 738.352063117 c 0
 184.170652132 649.702979124 233.213453021 611.286569955 351 564 c 257
 595 460 l 257
 672.733384694 428.356321275 693.207785081 396.71264255 693.207785081 346.513908219 c 0
 693.207785081 323.739402008 688.993503052 297.145675898 684 265 c 256
 667 156 595 96 404 96 c 256
 238 96 129 163 124 176 c 257
 66 66 l 258
 59 53 186 -23 426 -23 c 256
EndSplineSet
EndChar

StartChar: section
Encoding: 104 167 406
Width: 952
VWidth: 0
Flags: HW
PickledData: "(dp1
S'org.robofab.postScriptHintData'
p2
(dp3
s."
LayerCount: 2
Fore
SplineSet
802 476 m 257
 839.259261828 541.920232465 866.092986815 686.512240965 866.092986815 781.124170835 c 0
 866.092986815 877.458483197 823.791055806 917.199103575 683 968 c 257
 441 1051 l 257
 377 1075 357.8 1093.88 357.8 1135.288 c 0
 357.8 1145.64 359 1157.4 361 1171 c 256
 380 1289 400 1334 635 1334 c 256
 732 1334 876 1298 914 1295 c 257
 958 1430 l 257
 873 1447 743 1451 609 1451 c 256
 314 1451 250 1331 224 1170 c 256
 219.912467307 1145.78922943 217.604476764 1123.65459138 217.604476764 1103.40957463 c 0
 217.604476764 1059.26728551 228.57702367 1024.10855074 256 996 c 257
 203 944 189 885 174 792 c 256
 169.793544987 765.246946114 167.568847516 741.664704298 167.568847516 720.700705306 c 0
 167.568847516 617.070485861 221.93086129 577.418831772 360 535 c 257
 607 462 l 257
 683.918681543 437.276138075 704.238349339 406.420716328 704.238349339 357.448593686 c 0
 704.238349339 335.113231256 700.011616922 309.009379708 695 278 c 256
 679 175 628 90 413 90 c 256
 228.75 90 99.8358564014 155.043901384 85.5623028191 155.043901384 c 0
 85.3492647059 155.043901384 85.1617647059 155.029411765 85 155 c 258
 49 35 l 258
 49.8139534884 35.1937984496 50.7916591551 35.2869418905 51.9318359576 35.2869418905 c 0
 80.2082206598 35.2869418905 208.410852713 -22 417 -22 c 256
 677 -22 780 112 805 270 c 256
 812.641473508 319.123758265 819.389190117 361.693299273 819.389190117 398.03384301 c 0
 819.389190117 428.27307761 814.717052984 454.199337741 802 476 c 257
347.228039076 744.680308975 m 0
 347.228039076 795.607642682 387.221303789 914.276843116 399.269993974 914.276843116 c 0
 399.539140006 914.276843116 399.783021355 914.185981696 400 914 c 258
 624 851 l 257
 700.921652017 825.112905571 722.590808152 798.131702313 722.590808152 745.374658607 c 0
 722.590808152 679.228612166 706.865115622 617.550463901 679 566 c 257
 429 653 l 258
 368.199095174 675.184113923 347.228039076 698.71839221 347.228039076 744.680308975 c 0
EndSplineSet
EndChar

StartChar: seven
Encoding: 24 55 408
Width: 1173
VWidth: 0
Flags: HW
PickledData: "(dp1
S'org.robofab.postScriptHintData'
p2
(dp3
s."
LayerCount: 2
Fore
SplineSet
264 0 m 257
 413 0 l 257
 1072 1300 l 257
 1093 1428 l 257
 282 1428 l 257
 264 1319 l 257
 948 1319 l 257
 264 0 l 257
EndSplineSet
EndChar

StartChar: six
Encoding: 23 54 409
Width: 1173
VWidth: 0
Flags: HW
PickledData: "(dp1
S'org.robofab.postScriptHintData'
p2
(dp3
s."
LayerCount: 2
Fore
SplineSet
494 -23 m 257
 737 -23 960 72 1013 408 c 256
 1018.68419085 444.309219086 1021.44823361 478.101997195 1021.44823361 509.473558575 c 0
 1021.44823361 748.537411644 860.93888997 847 609 847 c 256
 531 847 461 827 410 803 c 257
 887 1427 l 257
 759 1427 l 257
 341 856 l 258
 209 675 142 519 126 406 c 256
 119.300658436 364.563331807 116.095153383 326.805196329 116.095153383 292.450628466 c 0
 116.095153383 49.8904209205 386.701099613 66.5662118752 494 -23 c 257
510 105 m 256
 343.829498759 105 244.540074984 127.056525547 244.540074984 295.401570828 c 0
 244.540074984 326.634511247 247.95772871 362.902867176 255 405 c 256
 294 656 423 708 607 708 c 256
 756.706296639 708 885.958181034 698.15157929 885.958181034 500.422510714 c 0
 885.958181034 470.977435259 883.091884058 437.365908109 877 399 c 256
 834 135 704 105 510 105 c 256
EndSplineSet
EndChar

StartChar: slash
Encoding: 16 47 410
Width: 614
VWidth: 0
Flags: HW
PickledData: "(dp1
S'org.robofab.postScriptHintData'
p2
(dp3
s."
LayerCount: 2
Fore
SplineSet
-80 0 m 257
 74 0 l 257
 694 1500 l 257
 547 1500 l 257
 -80 0 l 257
EndSplineSet
EndChar

StartChar: sterling
Encoding: 100 163 413
Width: 1266
VWidth: 0
Flags: HW
PickledData: "(dp1
S'org.robofab.postScriptHintData'
p2
(dp3
s."
LayerCount: 2
Fore
SplineSet
177 0 m 257
 866 0 l 257
 886 124 l 257
 333 124 l 257
 486 696 l 257
 987 696 l 257
 1006 807 l 257
 518 807 l 257
 607 1140 l 257
 660 1332 781 1355 854 1355 c 256
 973 1355 1091 1288 1089 1286 c 258
 1149 1388 l 257
 1006 1454 914 1465 851 1465 c 256
 675 1465 522 1304 481 1163 c 257
 387 807 l 257
 197 807 l 257
 179 696 l 257
 357 696 l 257
 177 0 l 257
EndSplineSet
EndChar

StartChar: summation
Encoding: 476 8721 414
Width: 1079
VWidth: 0
Flags: HW
PickledData: "(dp1
S'org.robofab.postScriptHintData'
p2
(dp3
s."
LayerCount: 2
Fore
SplineSet
958 0 m 257
 977 120 l 257
 146 120 l 257
 706 750 l 257
 714 801 l 257
 321 1310 l 257
 1166 1310 l 257
 1186 1428 l 257
 216 1428 l 257
 199 1331 l 257
 605 762 l 257
 6 107 l 257
 -12 0 l 257
 958 0 l 257
EndSplineSet
EndChar

StartChar: t
Encoding: 85 116 415
Width: 815
VWidth: 0
Flags: HW
PickledData: "(dp1
S'org.robofab.postScriptHintData'
p2
(dp3
s."
AnchorPoint: "mid" 362 583 basechar 0
AnchorPoint: "bot" 341 37 basechar 0
AnchorPoint: "caron.alt" 215 1052 basechar 0
AnchorPoint: "top" 556 1203 basechar 0
LayerCount: 2
Fore
SplineSet
210.99405953 220.931413468 m 0
 210.99405953 60.9583300644 336.364242419 -3.55869721691 570 -6 c 257
 617 126 l 257
 456.534920152 126.24789004 351.751314404 141.786149739 351.751314404 251.758367248 c 0
 351.751314404 262.851006598 352.817412482 274.904474894 355 288 c 258
 456 928 l 257
 728 928 l 257
 748 1052 l 257
 476 1052 l 257
 527 1369 l 257
 417 1369 l 257
 345 1052 l 257
 157 1052 l 257
 137 928 l 257
 318 928 l 257
 216 280 l 258
 212.654019809 259.011578803 210.99405953 239.339075585 210.99405953 220.931413468 c 0
EndSplineSet
EndChar

StartChar: thorn
Encoding: 191 254 420
Width: 1183
VWidth: 0
Flags: HW
PickledData: "(dp1
S'org.robofab.postScriptHintData'
p2
(dp3
s."
LayerCount: 2
Fore
SplineSet
37 -407 m 257
 174 -407 l 257
 245 44 l 257
 291 16 372 -24 511 -24 c 256
 771 -24 956 124 993 355 c 258
 1050 716 l 258
 1053.75353881 739.811511803 1055.66339287 762.838769648 1055.66339287 784.938137699 c 0
 1055.66339287 951.242250767 947.508429707 1065 703 1065 c 256
 583 1065 459 1020 392 969 c 257
 477 1500 l 257
 343 1500 l 257
 37 -407 l 257
524 88 m 256
 413 88 325 120 263 159 c 257
 368 814 l 257
 380 837 506 951 666 951 c 256
 806.687899292 951 918.627672212 885.04841597 918.627672212 766.362612315 c 0
 918.627672212 755.975993603 917.770367422 745.185503258 916 734 c 258
 850 326 l 258
 828 184 687 88 524 88 c 256
EndSplineSet
EndChar

StartChar: three
Encoding: 20 51 421
Width: 1173
VWidth: 0
Flags: HW
PickledData: "(dp1
S'org.robofab.postScriptHintData'
p2
(dp3
s."
LayerCount: 2
Fore
SplineSet
547 -23 m 256
 840.974886574 -23 1030.58807885 163.955234058 1030.58807885 503.997591863 c 0
 1030.58807885 683.428789677 943.761225618 736.817202689 802 761 c 257
 989 785 1060 886 1092 1085 c 256
 1096.87277513 1115.36985428 1099.20293283 1143.5566532 1099.20293283 1169.66517141 c 0
 1099.20293283 1373.95232174 956.542687178 1451 773 1451 c 256
 547 1451 328 1430 265 1020 c 257
 405 1020 l 257
 453 1325 549 1326 751 1326 c 256
 915.953743566 1326 970.413967438 1261.54544685 970.413967438 1154.09590064 c 0
 970.413967438 1133.87261808 968.484783885 1112.12629306 965 1089 c 256
 936 907 937 818 574 818 c 257
 555 699 l 257
 827.338890856 699 903.284605722 661.827790033 903.284605722 517.262987906 c 0
 903.284605722 478.161691597 897.72862854 431.203852063 889 375 c 256
 861 202 777 103 583 103 c 256
 378.639490181 103 294.807747962 124.914321382 294.807747962 335.610570124 c 0
 294.807747962 363.075957907 296.23226076 393.74922691 299 428 c 257
 159 428 l 257
 158.526454215 408.637239002 158.27715404 390.063490337 158.27715404 372.249329461 c 0
 158.27715404 51.4954936108 239.100264469 -23 547 -23 c 256
EndSplineSet
Substitution2: "'sups' Superscript lookup 10 subtable" threesuperior
EndChar

StartChar: threequarters
Encoding: 127 190 422
Width: 1546
VWidth: 0
Flags: HW
PickledData: "(dp1
S'org.robofab.postScriptHintData'
p2
(dp3
s."
LayerCount: 2
Fore
SplineSet
714.379757569 1042.15873008 m 0
 714.379757569 908.730336916 653.095329571 839 512 839 c 256
 383.549137108 839 317.392773663 865.938161923 317.392773663 990.872783361 c 0
 317.392773663 1002.10577191 317.927580126 1014.13096151 319 1027 c 257
 214 1027 l 257
 213.814786639 1020.8570902 213.722003471 1014.86092523 213.722003471 1009.00829892 c 0
 213.722003471 825.264679572 305.173778698 783 499 783 c 256
 667.420755368 783 815.278670813 841.208849591 815.278670813 1037.49330938 c 0
 815.278670813 1147.75339185 741.963485878 1171.44850157 647 1182 c 257
 756 1191 822 1227 840 1344 c 256
 842.075402606 1356.02004009 843.073981218 1367.32219752 843.073981218 1377.94074506 c 0
 843.073981218 1490.11530773 731.634059472 1526 601 1526 c 256
 449 1526 316 1509 276 1311 c 257
 381 1311 l 257
 406 1467 484 1467 598 1467 c 256
 702.74735843 1467 743.185928276 1430.58417996 743.185928276 1372.07467112 c 0
 743.185928276 1364.11346741 742.437241167 1355.7432171 741 1347 c 256
 727 1256 706 1206 483 1206 c 257
 476 1155 l 257
 664.159894074 1155 714.379757569 1127.96652667 714.379757569 1042.15873008 c 0
1317 0 m 257
 1402 0 l 257
 1435 205 l 257
 1565 205 l 257
 1571 253 l 257
 1442 253 l 257
 1478 484 l 257
 1393 484 l 257
 1356 253 l 257
 1085 253 l 257
 1564 783 l 257
 1453 783 l 257
 963 257 l 257
 956 205 l 257
 1350 205 l 257
 1317 0 l 257
445 0 m 257
 552 0 l 257
 1476 1411 l 257
 1379 1411 l 257
 445 0 l 257
EndSplineSet
Ligature2: "'frac' Diagonal Fractions lookup 11 subtable" three slash four
EndChar

StartChar: threesuperior
Encoding: 116 179 423
Width: 1124
VWidth: 0
Flags: HW
PickledData: "(dp1
S'org.robofab.postScriptHintData'
p2
(dp3
s."
LayerCount: 2
Fore
SplineSet
540 701 m 256
 720.490298462 701 880.239427031 799.652233831 880.239427031 1006.09738245 c 0
 880.239427031 1099.7708462 828.438581746 1148.25566342 728 1168 c 257
 853 1201 902 1265 918 1352 c 256
 920.631743483 1365.62867161 921.885339636 1378.75378938 921.885339636 1391.34961275 c 0
 921.885339636 1512.76497116 805.405227619 1585 684 1585 c 256
 524 1585 339 1560 299 1297 c 257
 392 1297 l 257
 414 1477 520 1501 665 1501 c 256
 786.582661454 1501 836.296842683 1440.83103981 836.296842683 1380.08054432 c 0
 836.296842683 1374.37570972 835.858446507 1368.66574695 835 1363 c 256
 822.159527329 1284.9694353 821.026349693 1205.96326269 542.509694075 1205.96326269 c 0
 539.049461796 1205.96326269 535.546415226 1205.97545733 532 1206 c 257
 519 1122 l 257
 523.438463853 1122.03623236 527.81194491 1122.05441394 532.121216106 1122.05441394 c 0
 733.192380802 1122.05441394 794.467893391 1082.47005788 794.467893391 990.013322156 c 0
 794.467893391 975.074556447 792.86819071 958.755466298 790 941 c 256
 776 843 667 782 562 782 c 256
 439.689071534 782 326.942827318 789.173513187 326.942827318 941.570350827 c 0
 326.942827318 959.872624204 328.568975992 980.269465947 332 1003 c 257
 237 1003 l 257
 233.601357026 976.11982375 231.952831334 951.562530439 231.952831334 929.135860712 c 0
 231.952831334 736.279517356 353.861335171 700.982825413 533.073483577 700.982825413 c 0
 535.372933884 700.982825413 537.681818182 700.988636364 540 701 c 256
EndSplineSet
EndChar

StartChar: tilde
Encoding: 410 732 424
Width: 364
VWidth: 0
Flags: HW
PickledData: "(dp1
S'org.robofab.postScriptHintData'
p2
(dp3
s."
AnchorPoint: "top" 139 1052 mark 0
LayerCount: 2
Fore
SplineSet
53 1186 m 256
 181 1186 226 1296 307 1296 c 256
 346.082003787 1296 371.449141137 1271.45760743 371.449141137 1225.43920937 c 0
 371.449141137 1217.2933859 370.654303442 1208.47464699 369 1199 c 257
 453 1199 l 257
 457.237532444 1224.76419726 459.348993832 1247.82770967 459.348993832 1268.36585323 c 0
 459.348993832 1368.99577052 408.659844268 1409 309 1409 c 256
 182 1409 135 1299 51 1299 c 256
 13.6793417397 1299 -9.25256101464 1324.89975991 -9.25256101464 1370.5970317 c 0
 -9.25256101464 1378.77555022 -8.51803221356 1387.58820028 -7 1397 c 257
 -91 1397 l 257
 -95 1371.66666667 -97 1348.91666667 -97 1328.59259259 c 0
 -97 1226.97222222 -47 1186 53 1186 c 256
EndSplineSet
EndChar

StartChar: trademark
Encoding: 469 8482 425
Width: 1843
VWidth: 0
Flags: HW
PickledData: "(dp1
S'org.robofab.postScriptHintData'
p2
(dp3
s."
LayerCount: 2
Fore
SplineSet
803 766 m 257
 904 766 l 257
 1001 1383 l 257
 1121 931 l 257
 1282 931 l 257
 1537 1383 l 257
 1440 766 l 257
 1543 766 l 257
 1651 1446 l 257
 1467 1446 l 257
 1208 991 l 257
 1097 1446 l 257
 911 1446 l 257
 803 766 l 257
309 766 m 257
 408 766 l 257
 501 1350 l 257
 731 1350 l 257
 746 1446 l 257
 187 1446 l 257
 172 1350 l 257
 402 1350 l 257
 309 766 l 257
EndSplineSet
EndChar

StartChar: two
Encoding: 19 50 426
Width: 1173
VWidth: 0
Flags: HW
PickledData: "(dp1
S'org.robofab.postScriptHintData'
p2
(dp3
s."
LayerCount: 2
Fore
SplineSet
89 0 m 257
 925 0 l 257
 942 109 l 257
 245 109 l 257
 783 614 l 257
 928 756 1061 829 1097 1058 c 256
 1100.93701281 1082.40947939 1102.9254454 1106.30018094 1102.9254454 1129.47995919 c 0
 1102.9254454 1312.36815141 979.141689872 1451 712 1451 c 256
 479 1451 239 1345 191 1043 c 257
 333 1043 l 257
 372 1294 470 1329 713 1329 c 256
 897.023482877 1329 973.015643132 1287.34086252 973.015643132 1147.06407668 c 0
 973.015643132 1120.40229784 970.270434087 1090.1779665 965 1056 c 256
 938 891 853 837 667 660 c 258
 99 117 l 257
 89 0 l 257
EndSplineSet
Substitution2: "'sups' Superscript lookup 10 subtable" twosuperior
EndChar

StartChar: twosuperior
Encoding: 115 178 427
Width: 1077
VWidth: 0
Flags: HW
PickledData: "(dp1
S'org.robofab.postScriptHintData'
p2
(dp3
s."
LayerCount: 2
Fore
SplineSet
209 736 m 257
 754 736 l 257
 766 823 l 257
 354 823 l 257
 574 976 l 257
 713 1091 812 1166 838 1332 c 256
 840.652884883 1349.14171771 841.931525147 1365.41932705 841.931525147 1380.8307035 c 0
 841.931525147 1516.46085553 742.898962973 1585 610 1585 c 256
 466 1585 294 1505 262 1278 c 257
 370 1278 l 257
 396 1463 485 1505 604 1505 c 256
 687.665719694 1505 744.184808605 1468.54595295 744.184808605 1375.1454462 c 0
 744.184808605 1362.49238437 743.147547847 1348.7942185 741 1334 c 256
 720 1208 662 1158 532 1053 c 257
 220 830 l 257
 209 736 l 257
EndSplineSet
EndChar

StartChar: u
Encoding: 86 117 428
Width: 1194
VWidth: 0
Flags: HW
PickledData: "(dp1
S'org.robofab.postScriptHintData'
p2
(dp3
s."
AnchorPoint: "ogonek" 868 0 basechar 0
AnchorPoint: "top" 695 1052 basechar 0
LayerCount: 2
Fore
SplineSet
463.700464948 -21.1676839135 m 0
 632.0278884 -21.1676839135 717.487421826 39.6833968101 795 142 c 257
 800 0 l 257
 916 0 l 257
 1082 1052 l 257
 945 1052 l 257
 823 284 l 258
 812 214 719 86 484 86 c 256
 340.383710577 86 276.530632879 146.42667555 276.530632879 231.12063113 c 0
 276.530632879 240.782496518 277.361628942 250.76018089 279 261 c 258
 404 1052 l 257
 267 1052 l 257
 146 289 l 258
 142.621084653 268.20667479 140.779082431 247.480906201 140.779082431 227.169486158 c 0
 140.779082431 94.1099727684 219.829002771 -21.1676839135 463.700464948 -21.1676839135 c 0
EndSplineSet
EndChar

StartChar: underscore
Encoding: 64 95 440
Width: 944
VWidth: 0
Flags: HW
PickledData: "(dp1
S'org.robofab.postScriptHintData'
p2
(dp3
s."
LayerCount: 2
Fore
SplineSet
7 -147 m 257
 919 -147 l 257
 940 -12 l 257
 28 -12 l 257
 7 -147 l 257
EndSplineSet
EndChar

StartChar: uni0307
Encoding: 412 775 457
Width: 299
VWidth: 0
Flags: HW
PickledData: "(dp1
S'org.robofab.postScriptHintData'
p2
(dp3
s."
AnchorPoint: "top" 114 1060 mark 0
LayerCount: 2
Fore
SplineSet
50 1327 m 257
 243 1327 l 257
 275 1535 l 257
 82 1535 l 257
 50 1327 l 257
EndSplineSet
EndChar

StartChar: uni030F
Encoding: 413 783 458
Width: 1024
VWidth: 0
Flags: HW
PickledData: "(dp1
S'org.robofab.postScriptHintData'
p2
(dp3
s."
AnchorPoint: "top" 524 1052 mark 0
LayerCount: 2
Fore
SplineSet
717 1375 m 257
 832 1375 l 257
 741 1765 l 257
 542 1765 l 257
 717 1375 l 257
307 1375 m 257
 422 1375 l 257
 331 1765 l 257
 132 1765 l 257
 307 1375 l 257
EndSplineSet
EndChar

StartChar: uni0311
Encoding: 414 785 459
Width: 474
VWidth: 0
Flags: HW
PickledData: "(dp1
S'org.robofab.postScriptHintData'
p2
(dp3
s."
AnchorPoint: "top" 196 1052 mark 0
LayerCount: 2
Fore
SplineSet
13 1279 m 257
 128 1279 l 257
 136 1330 187 1363 234 1363 c 256
 276.173585522 1363 314.984956837 1335.26173279 314.984956837 1291.34470611 c 0
 314.984956837 1287.36010901 314.665463387 1283.24232909 314 1279 c 257
 429 1279 l 257
 429.904781615 1284.79060233 430.375689451 1291.03963734 430.375689451 1297.61674513 c 0
 430.375689451 1363.73240303 382.790188427 1463 250 1463 c 256
 105 1463 23 1343 13 1279 c 257
EndSplineSet
EndChar

StartChar: uni0358
Encoding: 417 856 462
Width: 600
VWidth: 0
Flags: HW
PickledData: "(dp1
S'org.robofab.postScriptHintData'
p2
(dp3
s."
AnchorPoint: "top" 218 1060 mark 0
LayerCount: 2
Fore
SplineSet
154 1327 m 257
 347 1327 l 257
 379 1535 l 257
 186 1535 l 257
 154 1327 l 257
EndSplineSet
EndChar

StartChar: v
Encoding: 87 118 467
Width: 1064
VWidth: 0
Flags: HW
PickledData: "(dp1
S'org.robofab.postScriptHintData'
p2
(dp3
s."
LayerCount: 2
Fore
SplineSet
407 0 m 257
 537 0 l 257
 1086 1052 l 257
 945 1052 l 257
 501 160 l 257
 285 1052 l 257
 145 1052 l 257
 407 0 l 257
EndSplineSet
EndChar

StartChar: w
Encoding: 88 119 468
Width: 1567
VWidth: 0
Flags: HW
PickledData: "(dp1
S'org.robofab.postScriptHintData'
p2
(dp3
s."
AnchorPoint: "top" 869 1052 basechar 0
LayerCount: 2
Fore
SplineSet
269 0 m 257
 399 0 l 257
 839 907 l 257
 997 0 l 257
 1117 0 l 257
 1608 1052 l 257
 1482 1052 l 257
 1088 188 l 257
 939 1052 l 257
 782 1052 l 257
 371 182 l 257
 249 1052 l 257
 126 1052 l 257
 269 0 l 257
EndSplineSet
EndChar

StartChar: x
Encoding: 89 120 473
Width: 1019
VWidth: 0
Flags: HW
PickledData: "(dp1
S'org.robofab.postScriptHintData'
p2
(dp3
s."
LayerCount: 2
Fore
SplineSet
-13 0 m 257
 112 0 l 257
 501 442 l 257
 748 0 l 257
 878 0 l 257
 582 534 l 257
 1038 1052 l 257
 915 1052 l 257
 535 623 l 257
 294 1052 l 257
 162 1052 l 257
 451 529 l 257
 -13 0 l 257
EndSplineSet
EndChar

StartChar: y
Encoding: 90 121 474
Width: 1117
VWidth: 0
Flags: HW
PickledData: "(dp1
S'org.robofab.postScriptHintData'
p2
(dp3
s."
AnchorPoint: "top" 701 1052 basechar 0
LayerCount: 2
Fore
SplineSet
103 -371 m 257
 118.52625902 -371.957098159 133.577535952 -372.427905131 148.176831617 -372.427905131 c 0
 408.144276628 -372.427905131 524.795761073 -223.142617255 628 -12 c 257
 1158 1052 l 257
 1016 1052 l 257
 570 134 l 257
 365 1052 l 257
 204 1052 l 257
 493 -15 l 257
 423.838472616 -172.949974702 288.290516792 -259.272487142 159.014991735 -259.272487142 c 0
 149.971002808 -259.272487142 140.957712815 -258.850001946 132 -258 c 257
 103 -371 l 257
EndSplineSet
EndChar

StartChar: yen
Encoding: 102 165 478
Width: 1326
VWidth: 0
Flags: HW
PickledData: "(dp1
S'org.robofab.postScriptHintData'
p2
(dp3
s."
LayerCount: 2
Fore
SplineSet
1066 576 m 257
 1092 733 l 257
 253 733 l 257
 227 576 l 257
 1066 576 l 257
1017 265 m 257
 1043 421 l 257
 203 421 l 257
 177 265 l 257
 1017 265 l 257
EndSplineSet
Refer: 159 89 N 1 0 0 1 0 0 2
EndChar

StartChar: z
Encoding: 91 122 482
Width: 925
VWidth: 0
Flags: HW
PickledData: "(dp1
S'org.robofab.postScriptHintData'
p2
(dp3
s."
AnchorPoint: "bot" 451 0 basechar 0
AnchorPoint: "top" 582 1052 basechar 0
LayerCount: 2
Fore
SplineSet
62 0 m 257
 749 0 l 257
 764 97 l 257
 217 97 l 257
 891 950 l 257
 907 1052 l 257
 255 1052 l 257
 238 946 l 257
 742 946 l 257
 78 101 l 257
 62 0 l 257
EndSplineSet
EndChar

StartChar: zero
Encoding: 17 48 486
Width: 1148
VWidth: 0
Flags: HW
PickledData: "(dp1
S'org.robofab.postScriptHintData'
p2
(dp3
s."
LayerCount: 2
Fore
SplineSet
486 101 m 256
 278.425712358 101 221.867211335 202.070461357 221.867211335 359.325676556 c 0
 221.867211335 452.831173688 241.86408318 566.201400294 262 690 c 257
 266 722 l 257
 318 1056 357 1328 680 1328 c 256
 886.998964266 1328 942.858032585 1216.287903 942.858032585 1048.13711728 c 0
 942.858032585 953.90637863 925.315953011 841.951535403 907 722 c 258
 902 690 l 257
 849 358 817 101 486 101 c 256
466 -23 m 257
 1004 -23 1005 389 1055 712 c 257
 1052 688 l 257
 1071.97834692 815.704727386 1104.53993735 960.442869758 1104.53993735 1089.27252433 c 0
 1104.53993735 1289.31454311 1026.03149117 1451 700 1451 c 256
 183.623614367 1451 168.082762145 1037.40621661 121 715 c 257
 101.158730159 587.222222222 67.6175359033 444.642227261 67.6175359033 319.129023744 c 0
 67.6175359033 128.348954397 145.111111111 -23 466 -23 c 257
EndSplineSet
EndChar

StartChar: uni00AD
Encoding: 110 173 490
Width: 1058
VWidth: 0
Flags: HW
AnchorPoint: "mid" 526 566 mark 0
LayerCount: 2
Fore
SplineSet
186 502 m 257
 819 502 l 257
 840 642 l 257
 206 642 l 257
 186 502 l 257
EndSplineSet
EndChar

StartChar: uni02C9
Encoding: 405 713 497
Width: 514
VWidth: 0
Flags: HW
AnchorPoint: "mid" 256 1433 mark 0
AnchorPoint: "top" 196 1052 mark 0
LayerCount: 2
Fore
SplineSet
3 1363 m 257
 487 1363 l 257
 511 1504 l 257
 27 1504 l 257
 3 1363 l 257
EndSplineSet
EndChar

